<?xml version="1.0" encoding="utf-8"?>
<!-- Generator: Adobe Illustrator 25.0.1, SVG Export Plug-In . SVG Version: 6.00 Build 0)  -->
<svg version="1.1" id="Layer_1" xmlns="http://www.w3.org/2000/svg" xmlns:xlink="http://www.w3.org/1999/xlink" x="0px" y="0px"
	 viewBox="0 0 576 640.5" style="enable-background:new 0 0 576 640.5;" xml:space="preserve">
<style type="text/css">
	.st0{fill:#FDDA72;}
	.st1{fill:#E43D4C;}
	.st2{fill:#FF9EBC;}
	.st3{fill:#75D9FC;}
</style>
<path class="st0" d="M473.5,56.5c-24.3-16.2-61.6-29.5-105-37.7c-29.3-5.3-59.1-7.9-88.6-7.9v1.5c0,0,0,0,0,0l0-1.5
	c-19,0-38.3,1.1-57.1,3.3c-30.1,3.4-68.9,13.8-93.9,22.5c-0.1,0-0.2,0.1-0.3,0.1c0,0,0,0,0,0c-15,3.6-29.5,9.4-42.9,17.4
	c-11.4,6.8-21.7,15.6-30.7,26c0,0,0,0,0,0c-16,19.4-25,43.2-25.9,68.9c-0.4,12.4,2.5,21.9,8.9,28.2c4.4,4.6,10.4,7.3,17,7.5
	c0,0,0.1,0,0.1,0c0.1,0,0.2,0,0.2,0c1.2-0.1,2.3-0.1,3.6-0.1c0.2,0,0.3,0,0.5,0c0.4-0.1,0.9-0.1,1.3-0.1c0,0,0,0,0.1,0l2,0
	c19.6-0.5,39.9-1,55.9-1.9c50.2-2.9,95.1-4.4,150.2-5.1c1.1,0,2.2,0,3.3,0c12.1,0,25.1,0.9,37.7,1.8l2.3,0.2
	c12.7,0.9,27.1,1.9,40.5,1.9c4,0,7.8-0.1,11.2-0.3c9.4-0.4,19.2-1.3,29.2-2.2c13.8-1.3,29.5-2.7,45.1-2.7c4,0,7.9,0.1,11.7,0.3
	c8,0.7,14.5,1.5,20.5,2.7c0,0,0,0,0.1,0c9.1,1.6,18,2.9,26.5,2.9c7.5,0,13.7-1.2,19.1-3.6c21.7-9.7,24.9-21.9,25.4-30.3
	C543.2,111.1,505.5,77.8,473.5,56.5z"/>
<path class="st1" d="M519.9,188c-0.6-0.8-1.5-1.2-2.4-1.2c-0.3,0-0.7,0.1-1,0.2c-5.8,2.2-12.4,3.2-20.1,3.2c-9.5,0-19.1-1.6-27.6-3
	c-6.4-1.1-13-1.9-19.5-2.4c0,0,0,0-0.1,0c-3.5-0.2-7.2-0.3-11.1-0.3c-13.9,0-28,1.2-41.6,2.5l-2.8,0.2c-9.6,0.9-19.7,1.8-29.6,2.3
	c-3.8,0.2-8,0.3-12.3,0.3c-13.2,0-27.2-0.9-40.4-1.9l-2.4-0.2c-12.3-0.9-25.1-1.8-36.8-1.8c-1.1,0-2.2,0-3.3,0
	c-54.3,0.7-99.1,2.2-149.8,5c-16.1,0.9-36.1,1.4-55.3,1.8c-0.8,0-1.5,0.3-2.1,0.9c-5.9,5.9-3.4,14.6,0.2,23.1
	c0.5,1.1,1.6,1.8,2.8,1.8c0.1,0,0.2,0,0.3,0c0.3,0,0.6-0.1,1-0.1c0.9-0.1,1.9-0.2,3.1-0.3l0.9-0.1l2.6-0.3l2.5-0.3
	c0.1,0,0.2,0,0.4-0.1c0.1,0,0.2,0,0.3,0c0.2,0,0.5-0.1,0.9-0.1l2.1-0.3l0.8-0.1c0,0,0.1,0,0.1,0l2.3-0.4l0.7-0.1c0,0,0.1,0,0.1,0
	c9-1.5,17.7-3.2,19.4-3.6c5.8-1.5,11-2.3,15.6-2.3c11.2,0,17.3,4.3,23.2,8.5c5.8,4.1,11.3,8,22,8.6c0.1,0,0.1,0,0.2,0h0.1
	c1,0.1,1.9,0.1,3,0.1c1.5,0,3-0.1,4.9-0.2c11.3-0.9,22.4-4.7,35.8-9.7l0.2-0.1c10.5-3.8,21.3-7.8,32-9.4c5.2-0.8,10.9-1.2,17.1-1.2
	c18.4,0,38.3,3.6,46.4,8.4c0.1,0,0.1,0.1,0.2,0.1c0.2,0.1,0.3,0.2,0.6,0.4c2.7,2,4.5,4.9,5.2,8.1c0,0.1,0,0.2,0.1,0.3l0,0.1
	c0,0.2,0.1,0.4,0.1,0.6c0,0.1,0,0.2,0,0.2c0,0.2,0.1,0.5,0.1,0.8c0.7,5.6-0.7,11.9-2,16.2l-0.1,0.1c-0.1,0.1-0.1,0.3-0.2,0.4
	c-0.1,0.4-0.2,0.8-0.3,1.1c-0.1,0.3-0.1,0.5-0.2,0.7c0,0.1,0,0.1-0.1,0.2c-0.2,0.8-0.4,1.4-0.6,2.1c0,0,0,0.1,0,0.1
	c-0.4,1.5-0.5,3-0.4,4.5c0,0.1,0,0.2,0,0.2c0.3,1.6,0.7,3,1.2,4.3c0.1,0.2,0.2,0.4,0.3,0.6c0,0.1,0.1,0.2,0.2,0.3
	c0.5,0.9,1,1.7,1.5,2.4c0.1,0.1,0.2,0.3,0.3,0.4l0.2,0.2c0.8,0.9,1.6,1.8,2.8,2.6c0,0,0.1,0,0.1,0.1c0.1,0.1,0.3,0.2,0.4,0.3
	c1,0.6,2,1.1,2.9,1.5c0.1,0,0.2,0.1,0.2,0.1c1.6,0.5,3.4,0.7,5.1,0.7c0.1,0,0.2,0,0.4,0c2.8-0.3,5.4-0.9,7.7-1.7c0,0,0.1,0,0.1,0
	l0.1-0.1c0.1,0,0.2,0,0.3-0.1c1.3-0.4,2.6-1.1,4.1-2c0,0,0,0,0.1,0l0.3-0.2c0.1,0,0.1-0.1,0.2-0.2c1.3-1.1,2.4-2.4,3.2-4
	c0,0,0-0.1,0.1-0.1c0.9-2.2,1.3-4.3,1-6.4c0-0.3,0-0.7-0.1-1.2c0-0.2-0.1-0.5-0.2-0.7c-0.5-2-1.1-3.8-1.8-5.5c0-0.2-0.1-0.3-0.1-0.4
	l-0.2-0.5c-2.6-6.7-5.5-14.2-3.4-20.5c0-0.1,0-0.1,0.1-0.2c0.1-0.2,0.1-0.5,0.2-0.6c0-0.1,0-0.1,0.1-0.2
	c4.2-9.8,17.2-10.1,25.8-10.3l0.1,0c0.1,0,0.2,0,0.4,0c0.5-0.1,0.9-0.1,1.5-0.1c0,0,0.1,0,0.1,0c0.7,0,1.5,0,2.2,0
	c10.9,0,20.4,2.7,27.5,7.8c0.9,0.7,1.9,1.5,3.1,2.3c4.5,3.4,7.3,5.4,11,5.4c1.3,0,2.6-0.2,4.3-0.7c3.5-1.1,7.1-3.1,11-5.3l1.2-0.7
	c7.3-4.1,15.6-8.8,25.1-8.8c8.1,0,15.8,3.4,23.6,10.4c1.8,1.6,4.3,2.5,7.2,2.5c4.4,0,9.9-1.7,17.8-4.7l0.5-0.2
	c5.4-1.9,10.5-3.8,15-4.1c1.9-0.1,3.7-0.2,5.6-0.2c1.8,0,3.7,0.1,5.6,0.2c0.1,0,0.2,0,0.2,0c0.7,0,1.4-0.3,2-0.7
	c0.6-0.5,1-1.3,1-2.1C524.5,203.2,523.6,192.9,519.9,188z"/>
<g>
	<path class="st2" d="M538.1,229.1c-6.5-7.2-18.7-7.9-23.6-7.9c-1.3,0-2.7,0.1-3.9,0.2c-3.8,0.1-8.8,2-13.5,3.9l-1.3,0.5
		c-4.9,1.8-10,3.7-15,4.4c-1.4,0.2-2.8,0.3-4.1,0.3c-4.9,0-9-1.5-12.2-4.4c-6.3-5.7-12.5-8.5-18.8-8.5c-7.4,0-14,3.8-21.1,7.8
		l-0.1,0.1c-4.5,2.5-9.1,5.1-13.7,6.5c-1.9,0.6-4,0.9-6,0.9c-4.1,0-8-1.2-11.3-3.4c0,0-0.1,0-0.1-0.1c-1.6-1-3.1-2.1-4.7-3.3
		c-2.6-1.9-5.3-3.9-8.5-5.3c-5.4-2.3-11.4-3.4-19.1-3.4c-2.4,0-5.1,0.1-8.3,0.3c0,0-0.1,0-0.1,0c-0.3,0-0.6,0.1-0.9,0.1
		c-3.9,0.3-10.4,0.9-12.4,5.6c0,0,0,0,0,0.1c-1.2,3,0.1,8,3,15.7c2,5.7,3.9,11.8,2.7,17.4c-0.3,1.4,0.4,2.8,1.7,3.4
		c0.4,0.2,0.8,0.3,1.3,0.3c0.9,0,1.8-0.4,2.4-1.2c4.4-5.7,11.3-9.1,18.4-9.1l0.3,0l6.3,0c8.2,0,18.9,3.5,23.9,20.3
		c0.3,1.2,1.4,2,2.6,2.1c0.1,0,0.2,0,0.3,0c1.1,0,2.1-0.6,2.6-1.5c4.3-7.8,14.9-20.9,37.1-20.9H452c0.2,0,0.4,0,0.6,0
		c7.7,0,15.4,1.9,22.2,5.6c0.4,0.2,0.9,0.4,1.4,0.4c0.7,0,1.4-0.2,2-0.7c3.9-3.3,8.8-5.2,14-5.2h46.5c1.6,0,2.9-1.2,3-2.8
		c0.1-1.4,0.4-5.3,0.4-5.3C542.5,236.8,541.2,232.5,538.1,229.1z"/>
	<path class="st2" d="M299.1,222.1c-0.1-0.1-0.3-0.3-0.5-0.4c-3.7-2.3-13.1-4.8-23.5-6.1c-6.5-0.9-13-1.3-19.2-1.3
		c-5.7,0-11.1,0.4-15.9,1.1c-10.1,1.5-20.3,5.2-30.8,9.1c-11.6,4.3-24.8,9.1-37.8,10.1c0,0,0,0-0.1,0c-1.6,0.2-3.3,0.2-5,0.2
		c-1.3,0-2.7,0-4-0.1c-12.9-0.8-20-5.8-25.8-9.9c-5.3-3.7-10.2-7.3-19.1-7.3c-3.8,0-8.3,0.7-13.5,2c-2.5,0.7-13.3,2.8-23.1,4.2
		c-6.6,1-12.6,1.8-18.6,1.8c-0.9,0-1.7,0-2.5-0.1c-1.2,0-2.2-0.1-3.2-0.1c-5.9,0-10.7,0.7-14.6,2.3c-7.8,3.1-12.7,8.5-13,14.6
		l-0.2,4.2c0,0.8,0.3,1.6,0.8,2.2c0.6,0.6,1.4,0.9,2.2,0.9h12.1c6.7,0,12.1,1.8,16.1,5.4c0.6,0.5,1.3,0.8,2,0.8
		c0.7,0,1.4-0.2,1.9-0.7c4.4-3.7,9.8-5.5,16.7-5.5H95c5.8,0,10.8,1.4,14.7,4.2c0.5,0.4,1.1,0.5,1.7,0.5s1.2-0.2,1.7-0.5
		c3.9-2.7,8.9-4.2,14.6-4.2h30.6c8.9,0,15.5,1.5,21.5,5c1.9,1.1,3.3,2.1,4.4,3.1c0.5,0.5,1.2,0.7,2,0.7c0.1,0,0.2,0,0.2,0
		c0.8-0.1,1.5-0.4,2.1-1.1c4.3-5.1,10.7-7.7,18.5-7.7h30.3c8.8,0,15.4,1.5,21.4,4.9c0.7,0.4,1.3,0.8,1.9,1.2
		c0.6,0.4,1.2,0.8,1.8,1.2c0.5,0.4,1.1,0.5,1.7,0.5c0.8,0,1.6-0.3,2.2-0.9c4.3-4.5,10.5-6.9,17.7-6.9h11.1c1.5,0,2.7-1.1,3-2.5
		c0.3-1.9,0.8-3.8,1.4-5.8c0.5-1.7,0.9-3.4,1.3-5.2C301.8,231.4,302.8,224.7,299.1,222.1z"/>
</g>
<g>
	<path class="st0" d="M131.7,425.8c-1.2-1.5-2.6-2.9-4.2-4c1.4-1,2.6-2.3,3.7-3.6c3.4-4.3,5.3-10.3,5.3-17
		c0-10.6-4.8-19.5-13.1-24.2c-4.4-2.6-9.3-3.7-16.4-3.7H76.8c-10.2,0-14.5,5.8-14.5,19.3v58.7c0,9,1.5,18.4,12.5,19.3
		c1.4,0.2,3,0.7,4.8,1.5c0,0,0,0,0.1,0c2.4,0.9,3,4.2,1.7,8.5c-1.4,4.7-1,9,1.3,12c1.7,2.4,4.5,3.8,7.3,3.8c2.6,0,5-1.2,6.6-3.2
		c1.5-1.9,3-5.5,1.5-11.6c-0.4-1.8-1.8-7.3-1.2-9.2c0.2-0.5,0.4-0.7,2.3-1.2c0.6-0.2,1.4-0.4,2.2-0.7c1.2-0.4,3-0.5,4.7-0.5
		c0.7,0,1.5,0,2.3,0c0.9,0,1.7,0,2.6,0c4.5,0,9.6-0.4,13.3-3.4c5.6-4.6,13-12.1,13-24.1c0-1.1-0.1-2.1-0.2-3.2
		C136.6,434.3,134.7,429.4,131.7,425.8z M103.8,411.2c-1.4,0.7-2.9,1.1-4.3,1.1c-0.1,0-0.3,0-0.4,0c0,0-0.1,0-0.1,0h-5.6v-11.3H99
		c0,0,0.1,0,0.1,0c0.2,0,0.3,0,0.5,0c1.5,0,2.9,0.3,4.1,1c1.3,0.9,2.1,2.6,2.1,4.7C105.8,408.6,105,410.3,103.8,411.2z M93.4,431.1
		h6.8c0,0,0.1,0,0.1,0c0.2,0,0.3,0,0.5,0c1.5,0,2.9,0.3,4.1,1c1.3,0.9,2.1,2.6,2.1,4.6c0,2.1-0.7,3.7-2,4.7c-1.4,0.7-2.9,1-4.3,1
		c-0.1,0-0.3,0-0.4,0c0,0-0.1,0-0.1,0h-6.8V431.1z"/>
	<path class="st0" d="M211.4,380.1c-1.9-4.4-5.7-7.1-10.1-7.1h-1.8c-4.5,0-8.3,2.7-10.2,7.1c-1.3,3-1.5,7-1.5,12.2V427
		c0,4-0.2,8-1.2,10.6c-1.3,3-3.7,4.8-6.6,4.8h-1.7c-2.9,0-5.3-1.8-6.5-4.8c-1.1-2.7-1.3-6.7-1.3-10.6v-34.7
		c0-13.5-4.3-19.3-14.5-19.3h-2.3c-10.2,0-14.5,5.8-14.5,19.3v42.8c0,1.4,0.1,2.7,0.2,4.1c0.7,9.6,4,17.5,9.6,23
		c5.5,5.3,12.9,8.2,21.7,8.2c7.6,0.4,10,1.6,9.9,8c-0.1,2.7,0.8,5.1,2.6,6.9c2.1,2.2,5.4,3.4,8.9,3.4c5.5,0,11.6-3.3,12-10.5
		c0.2-3.7,0.2-6.2,0.2-8c0-3.7,0-3.8,1.9-6.2c0.2-0.2,0.4-0.5,0.5-0.7c3.3-4.2,6.4-8.2,6.4-27.8v-43.1
		C213,386.7,212.5,383,211.4,380.1C211.5,380.2,211.5,380.1,211.4,380.1z"/>
	<path class="st0" d="M294,459.7c0-0.1,0-0.2,0-0.3c0-0.1,0-0.1,0-0.2c-0.3-3.3-1.2-5.7-2.2-8c-1-2.5-2-4.9-2-8.3
		c0-7.2-0.6-12-3.5-16.4c-1.1-1.7-2.6-3.2-4.2-4.5c1.5-1,2.8-2.3,4-3.8c3.4-4.2,5.3-10.3,5.3-17c0-10.6-4.8-19.5-13.1-24.2
		c-4.4-2.6-9.3-3.7-16.4-3.7h-30.5c-10.2,0-14.5,5.8-14.5,19.3l0.2,58l-1.4,13.4c-0.7,4.6,0.4,9.6,2.9,12.5c1.5,1.7,3.3,2.6,5.3,2.6
		c1.8,0,2.3,0.3,2.6,0.6c0.5,0.6,0.8,1.9,0.9,4v2.4c0,3.5-0.6,5.6-1.1,7.6c-0.6,2.1-1.1,4.1-0.8,7.1c0,0.2,0,0.3,0.1,0.4
		c0.4,1.1,0.9,2.1,1.5,2.9c0.1,0.1,0.1,0.2,0.2,0.3c1.5,1.5,3.7,2.3,6,2.3c2.3,0,4.3-0.8,5.7-2.3c1-1.1,2.2-3.1,2-6.4
		c-0.4-5.1-1.4-8.5-2.1-11c-0.5-1.6-0.8-2.8-0.8-3.8l0-0.1c0-0.1,0.1-0.3,0.1-0.6c0.6-4.7,0.9-4.7,1.9-4.8c1.5,0,3.7-0.2,5.4-2.1
		c3-3.3,3.7-10.7,2.4-24.8v-16.8h6c0,0,0,0,0.1,0c0.1,0,0.1,0,0.2,0c2.1,0,4.1,1.2,5,3.2c0,0,0,0.1,0.1,0.1
		c1.3,2.3,1.5,5.4,1.5,13.5c0,17.3,8.2,19.3,14.4,19.3h4.5c5.7,0,14.3,0,14.3-9.9C294.1,460.2,294.1,459.9,294,459.7z M260.6,406.5
		c0,0.1,0,0.1,0,0.2c0.1,1.8-0.7,3.5-2.1,4.5c-1.4,0.7-2.9,1-4.3,1c-0.1,0-0.3,0-0.4,0c0,0-0.1,0-0.1,0h-5.8v-11.3h5.8
		c0,0,0.1,0,0.1,0c0.2,0,0.3,0,0.5,0c1.5,0,2.9,0.3,4.1,1C259.9,403,260.7,404.7,260.6,406.5z"/>
	<path class="st0" d="M421.7,442.7c-0.2,0-0.4,0-0.6,0h-21.5v-8.5h7.5c6.2,0,10.5-5.1,10.5-12.3c0-7.2-4.2-12.1-10.5-12.1h-7.5v-8.6
		h21.5c6.1,0,10.8-4.5,11.8-11.2c0,0,0,0,0-0.1l0-0.2c0.1-0.8,0.2-1.6,0.2-2.6c0-8.4-4.8-14-12-14H383c-10.2,0-14.5,5.8-14.5,19.3
		v58.7c0,13.5,4.3,19.3,14.5,19.3h21.8c7.7,0,8.5,0.9,8.5,4.8c0,4.6,2.9,9.5,9.1,9.5c4.9,0,10.2-3.4,10.5-9.8
		c0.2-5,0.3-9.8,0.3-13.2c0-2,0.1-3.6,0.1-4.5c0,0,0-0.1,0-0.1v-0.7C433.3,448.3,428.5,442.7,421.7,442.7z"/>
	<path class="st0" d="M507.5,442.7c0-7-0.6-12-3.9-16.4c-1.1-1.7-2.5-3.2-4.1-4.5c1.5-1,2.9-2.3,4-3.9c3.4-4.3,5.3-10.3,5.3-17
		c0-10.6-4.8-19.4-13.1-24.2c-4.4-2.6-9.3-3.7-16.4-3.7h-30.6c-9.4,0-13.9,5.2-14.4,16.8c0,0,0,0.1,0,0.1v2.5v58.6
		c-0.3,1.9-0.4,3.9-0.4,6.3c0,7.7,1.5,12.8,4.3,15.2c4.5,3.8,6.8,5.8,4.1,14.9c-1.2,3.9-0.6,7.3,1.6,9.4c0,0,0,0,0,0
		c1.2,1,2.4,1.6,3.7,1.8c0.5,0.1,0.9,0.1,1.4,0.1c2.7,0,5.3-1.3,6.8-3.5c1.8-2.6,2.1-6,0.7-9.8c-0.3-0.9-0.6-1.6-0.8-2.3
		c-0.9-2.6-1.6-4.5-1.5-5.1c0.1-0.3,1.2-1.1,2.2-1.8l0.3-0.2c5.4-3.4,8.7-6.8,8.7-25v-16.9h6c0,0,0,0,0.1,0c0.1,0,0.1,0,0.2,0
		c2.2,0,4.2,1.2,5.1,3.2c0,0,0,0.1,0.1,0.1c1.3,2.3,1.4,5.4,1.4,13.5c0,8.3,1.5,19.3,14.5,19.3h4.4c8.6,0,13.5-4,14.6-11.8
		c0.1-0.6-0.1-1.2-0.5-1.7C508.5,453.9,507.5,450.3,507.5,442.7z M478.2,406.5c0,0.1,0,0.1,0,0.2c0.1,1.8-0.8,3.5-2.2,4.5
		c-1.3,0.7-2.7,1-4.1,1c-0.1,0-0.3,0-0.4,0c0,0-0.1,0-0.1,0h-5.8v-11.3h5.8c0,0,0.1,0,0.1,0c0.2,0,0.3,0,0.5,0c1.5,0,2.9,0.3,4,1
		C477.5,403,478.3,404.6,478.2,406.5z"/>
	<path class="st0" d="M549.7,259.8l-57.5,0c-7.1,0-12,5.8-12,14.1c0,0.9,0.1,1.7,0.2,2.6l0,0.2c0,0,0,0.1,0,0.1
		c1.1,6.7,5.7,11.1,11.8,11.1h13.2l-0.4,45.9c0,1-0.1,2.2-0.1,3.7c-0.4,7.5-1.1,20.1,7.2,22c2.8,0.6,3.5,3.9,4,7.9l0,0.3
		c0,1.6-1.1,19.6-3.1,28.4c-0.4,1.7-0.7,3.3-0.7,5c0,3.4,1.1,6.4,3.1,8.4c1.8,1.8,4.2,2.7,6.9,2.7c4.9,0,10-3.5,10-9.5
		c0-0.6,0-1.3-0.1-2c-2.2-12.1-4.7-29.7-4.9-34.2c-0.2-4.8,0-5.6,1.1-5.9c0.2-0.1,0.5-0.1,0.8-0.2c5.5-1,8.7-5.1,7.6-22.7v-49.9
		h13.1c7.1,0,12-5.8,12-14C561.7,265.6,556.8,259.8,549.7,259.8z"/>
	<path class="st0" d="M447.1,331.2c-8.7,0-12.7-3.1-16.2-5.7c-2.8-2.1-5.7-4.4-10.2-4.4c-7,0-11.9,5.1-11.9,12.3
		c0,1.6,0.2,3.3,0.7,4.8c3,11.3,15.8,19,31.8,19c0.1,0,0.2,0,0.3,0c2.7-0.4,10.1-1.3,11.8-1.3c0.5,0,1,0,1.4-0.1
		c0.5,0,0.9-0.1,1.3-0.1c1,0,1.5,0,1.5,2.1c0,4.4,1.5,8,4.4,10.6c2.5,2.2,6,3.4,9.7,3.4c7.1,0,13.4-5.7,13.4-12.3v-19
		c0-0.9,0-2.2-0.1-3.8c-0.1-4-0.2-9.9,0.1-11.9c0-0.1,0-0.1,0-0.2c1.1-12.7-4.8-21.5-18-26.9c0,0,0,0-0.1,0
		c-6.8-2.5-13.7-4.1-20.6-4.8c-6.7-0.7-6.7-2.7-6.7-3.8c0-0.9,0-3.3,5.8-3.3c5,0,7.7,1.7,10.6,3.5c2.8,1.8,5.8,3.6,10.6,3.7
		c0,0,0,0,0.1,0h0.7c8.9,0,12.9-6.7,12.9-12.9c0-1.2-0.2-2.3-0.4-3.2c-2-10.1-13.6-17.2-28.2-17.2h-10.2c-10.2,0-18.7,3.6-24.7,10.5
		c-5.1,5.9-7.9,13.9-7.9,22.3c0,16.4,9.6,23.8,17.7,27.2c6.4,2.6,13.1,4.1,20,4.6c7,0.7,7,2.7,7,3.7
		C453.9,329,453.9,331.2,447.1,331.2z"/>
	<path class="st0" d="M351.6,419h-10.3c-6.5,0-14,1.2-14,10.9c0,5.5,2.5,8.7,7.6,9.7c-0.9,3.6-3,4.1-4.8,4.1c-2.9,0-4.6-1.3-5.7-4.3
		c-1.3-3.5-2.1-9.2-2.1-16.2v-4c0-6.7,0.8-11.5,2.5-14.3c1.6-2.7,4-3.9,7.5-3.9c3.5,0,6.1,1,8.3,5.7c2,4.4,4.5,8.8,12.3,8.8
		c7.6,0,13.1-6.4,13.1-15.1c0-8.3-4.8-18.6-15.3-23.9c2.9-3.3,1.1-7.8,0-10.6c-0.3-0.8-0.6-1.6-0.8-2.3c-0.3-1-0.1-1.5,3.4-2.8
		c0.6-0.2,1.2-0.5,1.7-0.7c2.4-1.2,3.1-4.4,3.8-7.7c0.3-1.3,0.6-2.6,0.9-3.9l2.1-7.2h15.7l2.4,7.8c2.3,7.8,7.8,8.8,12.4,8.8
		c0,0,0.1,0,0.1,0l7-0.4c6.7,0,10.4-3.9,10.4-10.9c0,0,0-0.1,0-0.1c-0.1-2.7-0.5-5.4-1.3-8.1c0,0,0-0.1,0-0.1
		c-0.3-0.8-0.4-1.5-0.4-2.2c0-0.2,0-0.4-0.1-0.6l-18.3-62.2c-1.6-5.8-4.9-13.5-14.2-13.5h-6.3c-8.7,0-12.6,7.2-14.3,13.2l-19,63.6
		c-0.6,1.9-1.1,3.6-1.6,5.3c0,0.1-0.1,0.2-0.1,0.3c-0.5-7.6-5.2-12.9-12-12.9h-21.5v-8.5h7.4c6.2,0,10.5-5.1,10.5-12.3
		c0-7.2-4.2-12.1-10.5-12.1h-7.4v-8.6h21.5c7.1,0,12-5.8,12-14v-0.8c0-0.7-0.3-1.3-0.9-1.6c-0.3-0.2-0.7-0.4-1.1-0.4
		c-0.2,0-0.5,0-0.7,0.1c-3.8,1.5-7.6,2.2-11.3,2.2c-5.2,0-12.5-1.5-18.1-8.6c-0.9-1.1-1.9-2.5-2.7-4.1c-0.3-0.7-1-1.1-1.8-1.1
		c-6.1,0-13.5,0.1-13.5,0.1c-10.1,0-14.5,5.8-14.5,19.4v58.7c0,0.5,0,1.1-0.1,1.9c-0.2,4.8-0.8,14.9,7.8,16.2
		c0.9,0.1,1.9,0.3,2.8,0.4c4,0.6,10.6,1.6,11.5,2.8c0.3,0.6,0.4,1.3,0.4,2.1c0,1.8-0.7,3.9-1.5,6c-1.1,3-2.2,6.2-1.5,9.3
		c1.2,5.4,5.5,7.9,9.3,7.9c2.7,0,5.1-1.2,6.7-3.3c1.4-1.8,2.8-5.1,1.3-10.5l-0.3-1.1c-0.9-3.2-1.7-6.1-1.7-8.5
		c0-2.5,0.8-3.1,2.4-3.3c2.3-0.4,5.2-0.6,8.8-0.6c3.6,0,6.5,0.2,6.6,0.2c0,0,0.1,0,0.1,0c3.8,0,6.9-1.6,9.1-4.4
		c-0.3,3,0.2,6.2,3.7,7.5c0.8,0.3,1.5,0.5,2.2,0.6c1.6,0.4,2.5,0.7,3.2,1.4c-0.2,0.5-0.7,1.4-1,2.1c-1.2,2.3-2.9,5.5-2,8.6
		c-0.8-0.1-1.7-0.1-2.5-0.1h-2.9c-11.3,0-20.7,4.2-27.9,12.5c0,0,0,0-0.1,0.1c-0.4,0.5-0.9,1.1-1.4,1.7c0,0,0,0,0,0.1
		c-6.9,9-10.3,20.1-10.3,33.9v1c-0.1,10,0.6,20.3,2,30.5c0.3,2.3,0.4,4.9,0.4,8c0,0.4,0,0.9-0.1,1.2c0,0.1,0,0.3,0,0.4
		c0,0.4,0,0.8,0,1.2c0,0.4-0.1,0.9-0.1,1.4c-0.5,9.3-1.5,20.1-2.1,25.6c-0.3,2.8,0.5,5.3,2.3,7.3c2,2.2,5.1,3.6,8.3,3.6
		c3.8,0,6.9-1.9,8.2-5c1.1-2.4,0.9-5,0.5-6.8c-1-4.7-1.9-8.4-2.7-11.6c-1.3-5.1-2.1-8.5-2.2-12.3c3.9,1.9,11.2,4.8,19.6,4.8
		c0.6,0,1.3,0,1.9-0.1c6.4,0,11.5-1.7,15.3-4.9c2.2,3,5.7,4.9,9.5,4.9c0.1,0,0.2,0,0.3,0l2.1,0c9.6,0,10.7-8.3,10.7-14.5v-20.7
		C366.2,424.2,361.6,419,351.6,419z M367.7,320.5l2.9-11.3l2.9,11.3H367.7z"/>
	<path class="st0" d="M217.6,357c-0.1-0.5-0.3-1.2-0.3-1.7c0.1,0,0.3,0,0.5,0c0.1,0,0.2,0,0.3,0c0.6,0,1.8,0.1,3.3,0.2
		c3.8,0.3,9.6,0.8,15.5,0.8c8,0,13.6-0.9,17.2-2.6c8.4-4.2,13.4-13.3,13.4-24.3c0-6.6-1.9-12.7-5.3-17c-1.3-1.5-2.7-2.9-4.3-4.1
		c1.5-1.1,2.8-2.3,3.9-3.7c3.4-4.3,5.3-10.3,5.3-17c0-10.6-4.8-19.4-13.1-24.2c-4.4-2.6-9.3-3.7-16.4-3.7h-30.4
		c-10.2,0-14.5,5.8-14.5,19.4l0.2,8.3l1.2,49.9l-1.4,17.4c-1.2,8.6,2.3,15,8.8,16.4c0,0,0.1,0,0.1,0c0.8,0.1,1.7,0.2,2.6,0.2
		c7.4,0,11.5,0,13.7-7.4C218.6,361.3,218,358.8,217.6,357z M231.1,317.9c1.5,0,2.9,0.3,4.1,1c1.4,1.1,2.1,2.7,2.1,4.7
		c0,2-0.8,3.7-2,4.7c-1.4,0.7-2.9,1-4.3,1c-0.1,0-0.3,0-0.4,0c0,0-0.1,0-0.1,0h-6.8v-11.4h6.8c0,0,0.1,0,0.1,0
		C230.8,317.9,230.9,317.9,231.1,317.9z M236.1,293.6c0.1,1.8-0.7,3.5-2.1,4.5c-1.2,0.7-2.6,1-4.1,1c-0.2,0-0.3,0-0.5,0
		c0,0-0.1,0-0.1,0h-5.6v-11.3h5.6c0,0,0.1,0,0.1,0c0.1,0,0.3,0,0.4,0c1.4,0,2.8,0.4,4.2,1c1.4,1.1,2.1,2.8,2.1,4.6
		C236.1,293.5,236.1,293.5,236.1,293.6z"/>
	<path class="st0" d="M127.2,357.9c0,0,0.1,0,0.1,0l3.5-0.2c4.1,0,8.6-0.3,11.5-3.5c2.5-2.8,3.3-7.5,2.4-14.8c0,0,0-0.1,0-0.1
		c-0.1-0.3-0.2-0.9-0.3-1.5c-0.2-1.2-0.7-3.5-0.7-4.3l0.5-12.6h6.1c2.3,0,4.4,1.2,5.3,3.2c0,0,0,0.1,0.1,0.1
		c1.3,2.3,1.5,5.3,1.5,13.5c0,4.1-0.3,6.6-0.6,9c-0.3,2.4-0.6,4.9-0.6,8.9c0,4.7,1.5,9,4.4,11.9c2.2,2.4,5.4,3.7,8.6,3.7l0.7,0
		l0.8,0c5.3,0,16.3,0,16.3-14.1c0-12.2-0.7-26.8-0.7-27.7c0-7.2-0.6-12-3.5-16.4c-1.1-1.8-2.5-3.3-4.2-4.6c1.5-1,2.8-2.3,4-3.7
		c3.4-4.3,5.3-10.3,5.3-17.1c0-10.7-4.8-19.6-13.1-24.3c-4.4-2.6-9.3-3.7-16.4-3.7h-30.6c-10.2,0-14.5,5.8-14.5,19.4l0.2,54.1
		c0,1.3-0.4,5.4-0.6,6.8c-0.8,6.3,0.1,10.8,2.7,13.8C117.9,356.6,121.7,357.9,127.2,357.9z M144.3,299.1v-11.3h5.8c0,0,0.1,0,0.1,0
		c0.1,0,0.3,0,0.4,0c1.4,0,2.9,0.4,4.3,1c1.4,1.1,2.2,2.8,2.1,4.6c0,0.1,0,0.1,0,0.2c0.1,1.9-0.7,3.5-2.1,4.5c-1.3,0.7-2.7,1-4.2,1
		c-0.2,0-0.3,0-0.5,0c0,0-0.1,0-0.1,0H144.3z"/>
	<path class="st0" d="M71.3,349.7l6.8-29.9v18.1c0,18.9,7.9,22.9,14.5,22.9l2.8,0.1c0,0,0,0,0.1,0c9.3,0,14-7.7,14-23v-58.7
		c0-13.6-4.3-19.4-14.4-19.4H80.7c-5.7,0-11.3,1.2-13.4,9.9l-4.6,19.2l-5.5-19.1c-2.3-8.3-6.9-10-13.1-10H28.6
		c-10.2,0-14.6,5.8-14.6,19.4v58.6c0,5.1,0.3,9.1,1.6,12.2c0.5,1.2,1.1,2.3,1.7,3.3c1.3,2.3,2.5,4.3,2.3,8.4
		c-0.1,3.5-0.7,7.3-1.3,11.3c-0.6,4-1.2,8.2-1.5,12.4c0,0,0,0.1,0,0.1v1.3c0,0,0,0.1,0,0.1c0.3,5.3,3.3,11,8.5,11l0.2,0
		c3-0.1,5.6-1.4,7.4-3.6c1.9-2.3,2.6-5.2,2.1-8.3c0,0,0-0.1,0-0.1c-0.1-0.4-0.2-0.8-0.2-1.1c0-0.1,0-0.2,0-0.3
		c-0.4-2.6-1.1-5.7-1.7-8.7c-1.1-5.3-2.3-10.8-2.3-14c0-0.2,0-0.7,0-0.8c0-0.1,0-0.1,0-0.2c0.2-1.6,1.4-2.4,3.3-3.7
		c2-1.4,4.5-3.1,5-6.4c0.6-4.1,0.8-7.9,0.8-11.5l-0.3-18.2l6.8,28.9c0,0,0,0,0,0c1.6,6.1,6.3,9.6,12.8,9.6h1.7
		C66.4,359.4,69.7,356.3,71.3,349.7z"/>
</g>
<g>
	<path class="st3" d="M563.2,485.4c-2.2-2.5-4.4-4.6-6.5-6.3c-8.4-7.1-24.3-11.7-31.9-13.9l-0.9-0.3c-0.3-0.1-0.6-0.1-0.8-0.1
		c-1.2,0-2.3,0.7-2.8,1.9c-3.7,8.9-11.8,13.7-22.9,13.7H493c-6.8,0-12.5-2-16.6-5.9c-0.6-0.5-1.3-0.8-2.1-0.8c-0.2,0-0.3,0-0.5,0
		c-0.9,0.1-1.7,0.7-2.2,1.5c-1,1.8-2.3,3.5-3.9,5.1c-0.6,0.6-1,1.5-0.9,2.4c0,0.4,0.1,0.9,0.1,1.4c0,0.5,0.1,1.1,0.1,1.7
		c0.2,3.9-0.7,7.8-2.6,11.4c-0.5,0.9-0.5,1.9,0,2.8c0.4,0.9,1.3,1.5,2.3,1.6c7.6,1,11.9,2.4,13.3,3.3c3.1,2,5.8,4.6,8.2,7.8
		c0.7,0.9,1.3,1.8,1.8,2.8c0.5,1,1.6,1.6,2.6,1.6c0.3,0,0.7-0.1,1-0.2c3.6-1.2,7-2.8,10.5-4.7c5.2-2.8,9.7-5.6,9.8-5.7
		c0,0,0,0,0.1,0c0.6-0.4,1.3-0.6,2-0.6c0.6,0,1.2,0.1,1.8,0.4c1.7,0.8,8.9,4.2,13.1,6.2c0.4,0.2,0.9,0.3,1.3,0.3
		c0.6,0,1.1-0.2,1.6-0.5c2.3-1.5,4.2-2.8,5.8-4.1c3.8-3,5.5-5.3,6.1-6.3c0.3-0.5,0.5-1.1,0.5-1.7c-0.1-1.1,0.4-2.3,1.2-2.9
		c0,0,0.1-0.1,0.1-0.1c3.3-3,7.7-4.5,11.6-5.9l0.1,0c0,0,0,0,0.1,0c0.3-0.1,0.6-0.2,0.9-0.3c0.6-0.2,1.4-0.5,2.1-0.8
		c0.9-0.4,1.5-1.2,1.7-2.1C564.1,487.1,563.9,486.1,563.2,485.4z"/>
	<path class="st3" d="M435.5,494.5c-0.3-0.8-0.9-1.5-1.6-1.8c-0.4-0.2-0.8-0.2-1.2-0.3c-0.4,0-0.8,0.1-1.2,0.3c-2.9,1.3-6.1,2-9.2,2
		c-6.4-0.1-14.8-4-17.9-12.3c-0.4-1.2-1.6-2-2.8-2h-18.4c0,0,0,0-0.1,0c-0.2,0-0.3,0-0.5,0c-4.4,0-8.7-1.1-12.7-3.3
		c-0.5-0.3-1-0.4-1.5-0.4c-0.6,0-1.1,0.2-1.6,0.5c-3.3,2.1-7.1,3.2-11.1,3.2c-0.1,0-0.3,0-0.4,0c0,0,0,0-0.1,0h-2
		c-3.4,0-6.8-0.7-9.7-2.1c-0.4-0.2-0.8-0.3-1.3-0.3c-0.3,0-0.7,0.1-1,0.2c-4.2,1.5-8.5,2.2-12.9,2.2c-0.2,0-0.3,0-0.5,0
		c-0.4,0.1-0.9,0.1-1.5,0.1c-1.3,0-2.7-0.1-4.1-0.2l-0.3,0c-0.1,0-0.1,0-0.2,0c-0.8,0-1.7,0.4-2.2,1c-0.6,0.7-0.9,1.6-0.7,2.5
		c0.1,0.6,0.2,1.3,0.2,2c0.1,0.6,0.1,1.3,0.2,2c1.3,12.4-5.8,17.9-8.9,19.7c-1.2,0.7-1.8,2.2-1.3,3.5c0.4,1.3,1.6,2.1,2.9,2.1
		c0.1,0,0.2,0,0.3,0c11.9-1.1,21.7-4.7,28.6-10.6c2.6-2.3,6.2-3.4,11.3-3.4c4,0,8.7,0.7,14.4,2c7.6,1.8,14.6,4.1,21.3,6.9
		c0.2,0.1,0.5,0.2,0.7,0.2c0.5,0.1,1.6,0.2,4,0.2c4.3,0,10.4-0.5,18-1.4c9.4-1.1,18.8-2.6,21.5-3.1h0c0.2,0,0.3,0,0.5,0
		c0.5-0.1,1-0.1,1.4-0.2c0.7-0.1,1.3-0.2,2-0.3c1-0.2,1.8-0.9,2.2-1.9c0.4-1,0.2-2-0.4-2.9C436.8,497.4,436,495.9,435.5,494.5z"/>
	<path class="st3" d="M288.7,506c-6.1-4.6-8.5-12.1-6.5-19.9c0-0.1,0-0.2,0.1-0.3c0-0.3,0.2-0.7,0.3-1.1l0.1-0.3
		c0.1-0.3,0.2-0.6,0.2-1c0-1.7-1.3-3-3-3h0h-4.5c-5.9,0-11-1.6-15.2-4.7c-0.5-0.4-1.1-0.6-1.8-0.6c-0.3,0-0.6,0-0.9,0.1
		c-0.9,0.3-1.6,1-2,1.8c-1,2.8-2.8,5.4-5.1,7.2c-0.9,0.7-1.3,2-1,3.1c0.8,3.2,1.4,6.5,1.7,9.9c0,0,0,0.1,0,0.1
		c0.1,0.7,0.1,1.4,0.1,2.3c0,1.3,0.9,2.5,2.1,2.9c5.9,1.8,21,6.1,32.9,8.8c0.2,0,0.4,0.1,0.6,0.1c1.1,0,2.2-0.7,2.7-1.7
		C290.2,508.4,289.8,506.9,288.7,506z"/>
	<path class="st3" d="M217.1,503.8c-0.2-0.6-0.4-1.2-0.7-1.8c-0.1-0.2-0.2-0.4-0.4-0.6c-0.4-2.5-0.3-5.1,0.1-7.7l0.1-0.6
		c0.2-1.1,0.3-2.1,0.4-2.9c0.2-1.4-0.7-2.7-2-3.2c-0.3-0.1-0.7-0.2-1-0.2c-1,0-2,0.5-2.5,1.4c-3.9,6.1-11.1,9.8-19.3,9.8
		c-9.7-0.1-20.7-5.4-22.7-15.4c-0.3-1.3-1.4-2.3-2.7-2.4c-10.2-0.8-19.1-4.9-25.6-11.7c-0.6-0.6-1.3-0.9-2.2-0.9c0,0,0,0,0,0
		c-0.8,0-1.6,0.3-2.2,0.9c-1.9,2-4,3.9-6.2,5.6c0,0,0,0-0.1,0c-5.9,4.9-13.3,5.5-18.3,5.6c-1.6,0-2.9,1.3-3,3
		c-0.1,12.4-6.9,20.1-18.2,20.6c-0.1,0-0.3,0-0.5,0c-0.4,0-0.8-0.1-1.2-0.1h-0.1c-15.2,0-17.6-10.7-17.8-21.1c0-1.3-0.9-2.5-2.2-2.8
		c-11.2-3-17.1-12.8-17.1-28.5v-7.6c0-1-0.5-2-1.4-2.5c-0.5-0.3-1-0.5-1.6-0.5c-0.5,0-0.9,0.1-1.3,0.3c-7.1,3.5-14.4,9.4-21.7,17.7
		c-5,5.6-9.4,11.5-13.6,17.9c-0.9,1.4-0.5,3.2,0.8,4.1c1.7,1.1,4.1,2.7,5.7,3.7c4,2.6,7.9,5,10.6,7.8c4.6,4.8,1,14.3-2.8,24.4
		l-0.1,0.3c-0.2,0.6-0.4,1.2-0.6,1.8c-0.4,1.1-0.1,2.3,0.7,3.1c0.6,0.6,1.3,0.9,2.1,0.9c0.3,0,0.6-0.1,0.9-0.2l0.3-0.1
		c0.1,0,0.1,0,0.2-0.1c1.3-0.5,2.6-1.1,3.9-1.6c1.2-0.5,2.5-1.1,3.7-1.6c0,0,0.1,0,0.1-0.1c2.1-1,5.2-3.1,8.2-5.1l1.3-0.9
		c0,0,0,0,0,0c4.7-3.3,7.1-4.9,9.2-5.3c0.4-0.1,0.8-0.1,1.2-0.1c3.8,0,6.9,3.5,9.9,6.8l0.1,0.1l0.4,0.4c3.4,3.8,7.3,8,12.7,9.3
		c0.3,0.1,0.8,0.1,1.2,0.1c1.8,0,5.3-0.6,11.7-3.7c6.4-3.1,13.4-7.4,18.8-10.7l2.2-1.3c6.6-3.9,12.3-7.4,16.4-8.7
		c1.2-0.4,2.4-0.6,3.7-0.6c5.1,0,9.8,3.6,13.9,6.7l0.1,0.1c5.4,4.2,7.7,5.5,10,5.5c2.3,0,3.7-1.5,4.9-2.6c0,0,0.1-0.1,0.1-0.1
		c0.7-0.8,1.7-1.2,2.8-1.2c1.7,0,3.7,0.3,8.4,1.4c0,0,0,0,0,0c6,1.3,17.2,3.7,26.6,3.7c6.5,0,11.1-1.1,14-3.5c0.5-0.3,0.8-0.7,1-0.9
		l0.1-0.1c0.9-0.9,1.1-2.2,0.6-3.3C217.4,504.6,217.3,504.2,217.1,503.8z"/>
</g>
<path class="st0" d="M514.8,554.8L514.8,554.8c-1.8-1.2-3.8-2.1-5.7-2.6c-7.4-2.2-17.2-1-25.8,0.1c-4.3,0.6-8.3,1-12.1,1.2
	c-16.4,0.7-32.6-0.1-48.4-0.9l-2.1-0.1c-10.6-0.5-20.2-1-29.9-1.2l-12.3-0.3c-14.1-0.4-29-0.7-43.9,0c-4.9,0.3-9.9,1-15.2,1.7
	l-1.8,0.2c-12,1.8-22.9,3.2-33.6,1.3c-8.2-1.5-14.8-2.7-20.3-3.9l-0.8-0.2c-18.5-3.8-33-6.7-39.9-2.4c-3.2,2-2.9,8.3-1.3,19.3
	c1.4,10,3.1,21.3-3.3,28.3c-3.5,3.9-9.2,5.7-16.7,5.5c-7.5-0.3-13.2-2.6-17-7c-7.2-8.4-5.3-21.8-3.7-32.6l0.2-1.4
	c0.5-3.8,1.1-8.2,0.8-10.6l-0.2-1.2l-1.1-0.4c-22.3-8.2-30.7-6.3-49.1-2.1c-17.3,4.2-35,7.1-52.6,8.5l-0.2,0
	c-1.3,0.1-2.8,0.2-4.3,0.2c-0.8,0-1.5,0-2.3,0.1c-4.5,0.1-9.1,0.2-12.9,1.3c-1.2,0.2-2.2,0.7-3,1.1c-0.4,0.1-0.9,0.4-1.3,0.8l0,0
	c-5.1,4.1-1.8,15.1,2.1,26l0.1,0.3c1.1,3,2,5.6,2.7,8.1c1.9,7.2,6.9,22,9.8,25.7c6.8,8.7,18.4,8.4,30.8,8.1c1.1,0,2.2,0,3.3,0
	c1.1,0,2.2,0,3.3,0c2.4,0,6,0,9.5,0.5c22.1,2.5,43.5,3.4,65.9,3.4c17.5,0,35.5-0.5,55-1.2c36.6-1.2,73.1-0.8,108.5-0.4l32.4,0.3
	c21.5,0.1,46.9,0.1,72.1-0.7c4.3-0.1,9.8,0.3,15.7,0.6l0.8,0.1c10.6,0.8,20.9,1.4,29.3,0.3c4.3-0.5,7.6-1.5,9.9-2.9
	c2.7-1.6,3.4-3.5,3.6-4.7c1.3-6.6,3.2-13.7,5.1-20.3l0.1-0.5C520.2,580.6,525.2,562.2,514.8,554.8z"/>
<g id="Layer_2_1_">
	<g id="Layer_1-2">
		<path class="st1" d="M525.5,526.5L525.5,526.5L525.5,526.5c-1-1.4-0.8-3.3,0.3-5.2l1.7-2.8l-3-1.4c-0.8-0.4-1.7-0.8-2.6-1.2
			c-1.3-0.6-2.7-1.2-4-1.9l-1.4-0.7l-1.4,0.8c-2,1.2-5,2.8-8.8,4.8c-7.4,3.7-12.4,5.5-15.9,5.5c-1.3,0-2.4-0.2-3.4-0.7
			c-1.7-0.8-2.9-2.3-3.2-4.1l-0.1-0.5l-0.2-0.4c-1.8-3.3-4.3-6.1-7.4-8l-0.4-0.2l-0.4-0.1c-4.7-1.3-9.6-2.1-14.8-2.3
			c-0.9,0-1.7,0-2.5,0c-2.4,0-4.9,0.1-7.3,0.3h-0.1l-0.1,0c-1.5,0.1-3.1,0.3-4.4,0.7l-0.1,0l-0.1,0c-1.4,0.4-3.7,0.7-6.1,1
			c-1.8,0.2-3.6,0.5-5.4,0.8h-0.2l-0.2,0c-2,0.3-12.5,2.1-23.4,3.4c-7.7,0.9-13.5,1.3-17.8,1.3c-4.9,0-6.9-0.6-8.1-1.1l0,0l0,0
			c-6.7-2.7-13-4.8-19.4-6.3c-5.2-1.3-9.6-1.9-13-1.9c-3.5,0-5.1,0.7-5.7,1.1l-0.2,0.1l-0.2,0.2c-9.6,8.3-24.3,12.9-41.3,12.9
			c-1.4,0-2.8,0-4.1-0.1l-0.1,0h-0.1c-0.7,0-1.3,0-1.8-0.1l-0.2,0h-0.2c-9.5-0.7-28.4-5.8-47.5-11.3l-1.1-0.3l-1.7-0.5l-1.2,1.2
			c-3.2,3.2-7.5,5-12.1,5c-0.7,0-1.5,0-2.2-0.1c-2.5-0.3-4.7-0.9-6.6-1.7l-1.9-0.8l-1.4,1.4c-0.3,0.3-0.8,0.7-1.4,1.2
			c-4.5,3.6-10.8,5.3-19.4,5.3c-9.5,0-19.8-2.2-27.3-3.9l-0.7-0.1c-1.6-0.4-3-0.6-4-0.8l-1.3-0.2l-1,0.8c-2.2,1.8-5.1,2.8-8,2.8
			c-1.2,0-2.5-0.2-3.7-0.5l0,0l0,0c-4-1-7.7-3.9-11-6.4l-0.1,0c-5-3.9-7.3-5.2-9.3-5.2c-0.4,0-0.8,0.1-1.1,0.2
			c-3.6,1.2-9.3,4.6-16.9,9.3c-14.4,8.9-26.2,15.8-34.7,15.8c-1.1,0-2-0.1-2.9-0.3l0,0l0,0c-8.3-1.8-13.7-8-17.3-12.1
			c-0.7-0.8-1.6-1.8-2.3-2.5l-1.7-1.7l-2,1.4c-0.6,0.4-1.3,0.9-2,1.4c-0.7,0.5-1.3,0.9-1.9,1.3l0,0l0,0c-2.5,1.8-5.5,3.8-8.1,5.3
			l-0.8,0.5l-0.4,0.9c-1.4,2.9-2.6,5.1-3.8,7l-2.9,4.5l5.4,0.1c2.8,0.1,5.1,1.9,7.5,4c2.8,2.5,5.7,4.3,8.6,5.7l0.8,0.4l0.9-0.1
			c4.5-0.7,8.7-1.1,12.8-1.1h0.1l0.1,0c0.7,0,1.3-0.1,1.9-0.1c1.4,0,2.8-0.1,4.1-0.2c17.8-1.6,35.1-4.4,51.5-8.4l0.3-0.1
			c9.3-2.1,16.6-3.7,24.5-3.7c8.7,0,18.1,2.1,30.5,6.7c3.4,1.3,5.2,4.5,5.3,9.5c0.1,3.5-0.5,7.9-1.2,12.3l0,0.1
			c-1.3,9.7-2.9,20.8,1.9,26.3c3,3.6,8.4,3.9,10.4,4l0.3,0l0,0l0,0c0.3,0,0.7,0,1,0c4.3,0,7.4-1,9.2-2.9c3.5-3.7,2.7-11.2,1.3-21.3
			l-0.1-0.4c-1.6-10.9-3.2-22.1,5-27.1c3.8-2.3,8.4-3.4,14.5-3.4c8.6,0,19.4,2.2,32,4.7l0.5,0.1c6.9,1.4,13.5,2.7,20.1,3.9
			c3,0.5,6.1,0.8,9.6,0.8c6.7,0,13.5-1,20.7-2l0.7-0.1l1.6-0.2c5.3-0.7,10.9-1.5,16.2-1.7c5.5-0.3,11.4-0.4,18.2-0.4
			c7.7,0,15.5,0.2,23,0.3l3.3,0.1c4,0.1,8.1,0.2,12.2,0.3c10.5,0.2,20.9,0.7,30.1,1.2l2.2,0.1c11.3,0.6,23,1.1,34.7,1.1
			c4.5,0,8.6-0.1,12.7-0.3c3.2-0.2,6.9-0.6,11.4-1.1l1-0.1c5.2-0.6,10.6-1.2,15.9-1.2c4.9,0,9,0.5,12.5,1.6l0,0l0,0
			c2.6,0.7,5.2,1.9,7.6,3.4l1.6,1l1.6-1c0.4-0.2,0.7-0.4,1-0.5l0.1,0l0.1,0c1.7-0.7,3.3-2.8,4.2-5.6
			C529.2,536.6,528.4,531,525.5,526.5z"/>
		<path d="M39.9,175.4c4,4,9.4,6.4,15,6.6c1.3-0.1,2.5-0.1,3.8-0.1c0.7,0,1.3-0.1,1.8-0.1c20.3-0.4,41.3-0.9,57.8-1.9
			c50.8-2.8,95.8-4.3,150.3-5.1c13.8-0.2,28.9,0.9,43.5,1.9c17.4,1.2,35.4,2.5,51.4,1.6c9.6-0.5,19.5-1.4,29.1-2.2
			c18.7-1.7,38-3.5,57.2-2.4c7,0.5,13.9,1.4,20.8,2.7c8.7,1.4,17.6,2.9,26,2.9c6.5,0,12.6-0.9,17.9-3.3
			c19.9-8.9,23.1-19.5,23.6-27.7c2.1-36-34.8-68.5-66.2-89.3c-24.1-16-61.1-29.2-104-37c-47.8-8.6-96.6-10.2-144.8-4.6
			c-29.8,3.4-68.4,13.7-93.4,22.3c-0.2,0.1-0.4,0.1-0.6,0.2c-14.8,3.6-29,9.3-42.1,17.1c-11.4,6.6-21.5,15.2-30,25.3
			c-15.6,18.7-24.3,41.9-25.2,67.1C31.4,160.9,34.1,169.6,39.9,175.4z M142.4,216.5c5.7,4,10.7,7.4,20.5,8.1h0.1
			c2.5,0.2,5,0.1,7.5-0.1c11.3-0.8,22.8-5,35-9.5c10.7-3.9,21.8-7.9,32.8-9.6c23.5-3.5,54.7,1.3,65.3,7.6c0.4,0.2,0.8,0.4,1.1,0.7
			c3.3,2.4,5.6,5.9,6.4,9.9c0.1,0.3,0.1,0.6,0.2,0.9c0.1,0.3,0.1,0.8,0.2,1.2c0.4,3.8,0.2,7.7-0.6,11.4c0,0.1,0,0.2,0,0.2
			c-0.4,1.9-0.8,3.7-1.3,5.3l-0.2,0.8c0,0.1-0.1,0.2-0.1,0.3c-0.4,1.3-0.8,2.7-1.1,4l-0.1,0.2c0,0.2-0.1,0.4-0.1,0.5
			c-0.2,0.8-0.2,1.6-0.2,2.3v0.2c0.1,1,0.3,2,0.6,2.9c0.1,0.3,0.3,0.6,0.4,0.9l0.1,0.1c0.1,0.1,0.1,0.3,0.2,0.4c1,1.9,2.3,3.5,4,4.8
			c0.1,0.1,0.2,0.2,0.4,0.3h0.1c1.3,1,2.8,1.6,4.4,1.9c0.6,0.1,1.1,0.1,1.7,0h0.1l0.4-0.1c3.1-0.1,6.2-0.8,9-2.2
			c0.9-0.4,1.7-0.9,2.4-1.5h0.1c0.1-0.1,0.2-0.1,0.3-0.2l0,0c0.5-0.4,1-0.9,1.4-1.4l0,0c0.5-0.7,0.9-1.5,1.2-2.3
			c0.1-0.4,0.1-0.8,0.2-1.2c0-0.1,0-0.2,0-0.3c0.1-0.8,0.1-1.7-0.1-2.5v-0.1v-0.1v-0.2c0-0.2,0-0.3-0.1-0.4
			c-0.3-1.7-0.8-3.3-1.5-4.9c-0.1-0.4-0.3-0.7-0.4-1v-0.1c-0.1-0.4-0.3-0.8-0.4-1.2c-2.6-7-5.5-15-3.2-21.8c0.1-0.4,0.3-0.8,0.4-1.2
			c4.9-11.6,19.8-11.9,28.6-12.1c0.7,0,1.3,0,1.9-0.1c12.5-0.4,23.4,2.5,31.6,8.4c1.1,0.8,2.2,1.6,3.1,2.3c5.9,4.4,7.8,5.6,12.6,4.2
			c3.6-1.1,7.5-3.3,11.6-5.7c12.9-7.3,30.6-17.3,52.1,2c4,3.6,11.6,1.1,22-2.8c5.8-2.2,11.2-4.2,16.3-4.5c3.9-0.3,7.7-0.3,11.6,0
			c0.4-8.1-0.6-17.3-3.6-21.3c-15.6,5.8-33.5,3-49.3,0.4c-6.4-1.2-12.8-2-19.2-2.5c-18.1-1-36.9,0.7-55.1,2.4
			c-9.7,0.9-19.8,1.8-29.7,2.3c-16.9,0.9-35.3-0.4-53.1-1.6c-14.3-1-29-2.1-42.3-1.9c-54.3,0.7-99.1,2.2-149.7,5
			c-15.9,0.9-35.9,1.4-55.4,1.8l0,0l0,0c-4.2,4.1-3,10.6,0.8,19.8c1-0.1,2.3-0.2,4-0.4l0.9-0.1l2.6-0.3l2.5-0.3
			c0.4-0.1,0.9-0.1,1.3-0.2l2.2-0.3l0.8-0.1l2.4-0.4l0.8-0.1c9.1-1.5,17.6-3.1,19.2-3.6C124.3,203.7,133.9,210.5,142.4,216.5z
			 M572.9,480.3c2.6,3.6,3.5,6.9,2.9,10.2c-1.3,6.6-7.8,8.8-13,10.6c-2.1,0.7-4.2,1.5-6.2,2.5c-1.2,4.2-4.9,8.8-11.4,13.7
			c-2.1,1.6-4.4,3.1-6.7,4.5c-1,0.5-2,1-3,1.4c3.5,6.6,4.1,14.2,1.8,21.3c-1.6,4.8-4.4,8.6-7.9,10.8c2.2,4.7,3,10.3,2.7,17
			c-0.5,9.6-3.6,20.5-6.5,31.1c-1.8,6.5-3.7,13.2-4.9,19.5c-1.1,5.2-4.3,9.7-9,12.2c-3.7,2.2-8.3,3.6-14.2,4.3
			c-9.8,1.3-21.3,0.5-31.6-0.2c-5.9-0.4-11.4-0.8-15.4-0.6c-25.6,0.8-51.1,0.8-72.5,0.7c-10.9-0.1-21.8-0.2-32.5-0.3
			c-35.4-0.4-72-0.8-107.9,0.4c-19.5,0.7-37.7,1.2-55.2,1.2c-22.5,0.2-45-1-67.4-3.5c-4.8-0.4-9.7-0.5-14.5-0.3
			c-14,0.3-29.8,0.7-40.1-12.4c-5.6-7.2-11.7-29.5-11.7-29.7c-0.5-2.1-1.5-4.7-2.5-7.5c-2.1-5.8-4.4-12.4-5.1-18.7
			c-0.8-7.1,0.5-12.8,3.9-16.9c-1.2-0.9-2.2-1.8-3.1-2.6c-0.4-0.4-1-0.8-1.4-1.2c-4,1.1-10.4,2.4-14.2-2.2c-2.1-2.6-2.4-5.9-0.8-9.9
			l-0.4,0.2c-1.4,0.6-2.9,0.9-4.4,0.9c-2.2,0-4.2-0.8-5.8-2.2c-4-3.8-2.4-9.6-1.8-11.8c0.8-2.8,2-6.1,3.3-9.6
			c1.3-3.3,2.6-6.8,3.4-9.8c0.5-1.5,0.8-3.1,1-4.8c-2.4-2-5-3.7-7.7-5.3c-3.1-1.8-5.9-3.8-8.6-6c-1.6-1.3-2.8-3-3.7-4.9
			c-1.2-2.7-1-5.9,0.5-8.5c4.8-7.9,22-34.3,44.2-43.8l3.4-1.6v-29.7C44.8,408.1,36.4,413,28,413c-2.1,0-4.2-0.3-6.3-0.9
			C10.5,408.6,5.2,398.4,5.1,380c0-4.3,0.4-8.7,1.1-13l0.1-0.5c0.3-1.7,0.6-3.4,0.8-5.1c-0.1,0-0.1-0.1-0.1-0.2
			c-1.5-2-2.7-4.1-3.7-6.3c-2.2-5.1-2.6-10.5-2.6-17.1v-58.5c0-16.2,6.3-27,17.6-30.8l0.1-1.8l0.2-4.8v-0.1
			c0.8-12.6,12.9-22.5,24.7-25.3c0.7-0.2,6.7-1.4,7-0.7c-1.1-3-1.8-6-2.3-9.1c-0.6-3.8-0.3-7.6,0.8-11.3c-7.2-1.4-13.9-5-19.1-10.2
			c-10.7-10.7-12.5-25.7-12.1-36.3c1.1-28.2,10.9-54.3,28.4-75.3c9.4-11.3,20.8-21,33.4-28.6c14.2-8.4,29.6-14.8,45.7-18.7
			c25.7-8.9,65.3-19.4,96.1-22.9c49.7-5.7,99.9-4.1,149.1,4.8c44.9,8.3,83.7,22.1,109.4,39.2c19.2,12.8,34.8,26,46.5,39.2
			c18.4,20.9,27.1,41.9,25.9,62.6c-0.9,14.7-8.4,26.1-22.7,34.8c2.7,4.6,4.4,10.7,4.9,18.5c0.2,3.9,0.2,7.8-0.1,11.8
			c0.4,0.2,0.8,0.4,1.2,0.5h0.1c10.9,5.1,17.7,16.4,16.7,27.7c0,0.2-0.2,2.6-0.3,4.4c13.4,1.2,22.9,12.2,22.9,27
			c0,15.4-10.8,27.1-25.2,27.1v36.9c0,11.6-1.3,24.1-9.9,30.7c0.6,6.2,2.1,20,2.7,25.7v0.3v0.3c0,3.2-0.3,6.4-0.8,9.6
			c-1.5,9.1-5.3,15.1-11.9,18.9c-2.1,1.3-4.4,2.1-6.9,2.2c-1.6,0-3.2-0.3-4.7-0.9c-0.1,0-0.2,0.1-0.4,0.2c2.2,5.5,2.7,11.2,2.7,17.9
			c0,1.4,0,2.9,0.2,4.3c0.1,0.4,0.1,0.7,0.2,1.1c1.7,1.7,3,3.8,3.6,6.1h0.2l1.3,0.3h0.1c12.4,3.4,27.9,8.3,37.5,16.4
			C567.2,473.8,570.2,476.9,572.9,480.3L572.9,480.3z M561,487.4c-1.9-2.2-4-4.2-6.2-6c-8.3-7.1-24.9-11.7-31.6-13.5
			c-4.1,9.9-13.3,15.6-25.7,15.6H493c-7.6,0-14-2.3-18.7-6.7c-1.2,2.2-2.6,4.1-4.4,5.8c0.1,1,0.1,2.1,0.2,3.1
			c0.3,4.6-0.8,9.1-3,13.1c6,0.7,12,2.1,14.6,3.8c3.5,2.3,6.6,5.1,9,8.5c0.7,1,1.4,2.1,2,3.1c3.4-1.2,6.8-2.7,10-4.5
			c5.2-2.8,9.7-5.6,9.7-5.6c2-1.3,4.6-1.4,6.7-0.4c1.8,0.8,8.9,4.2,13.1,6.2c1.9-1.2,3.8-2.4,5.5-3.9c3.4-2.8,4.9-4.8,5.5-5.6
			c-0.1-2.1,0.7-4.1,2.3-5.4c3.8-3.3,8.7-5.1,12.7-6.5C559,488.1,560,487.8,561,487.4L561,487.4z M559.7,273.9c0-7.2-4-12.1-10-12.1
			h-57.6c-5.9,0-10,4.9-10,12.1c0,0.9,0.1,1.7,0.2,2.6c0.8,5.7,4.6,9.4,9.8,9.4h15.2l-0.4,47.8c0,6.1-2.6,21.9,5.5,23.7
			c4.5,1,5.1,6.5,5.6,10c0.2,1.1-1,19.7-3.2,29.1c-0.4,1.5-0.5,3-0.6,4.5c0,3.2,1,5.5,2.5,7c4.5,4.4,13.4,1.8,13.4-5.3
			c0-0.5-0.1-1.1-0.1-1.6c-2.2-12.3-4.7-29.9-4.9-34.5s-0.2-7,2.4-7.9c2.6-0.9,8.5,1.3,7-20.9V286h15.1
			C555.7,286,559.7,281,559.7,273.9z M539,241.4c1.5-15.2-17.3-18-28.4-17.2h-0.1c-3.1,0.2-7.9,2-12.6,3.7c-5.5,2.1-11.2,4.2-17,5
			c-7.7,1.1-14-0.5-18.7-4.8c-14.3-12.8-24.1-7.3-36.5-0.3c-4.6,2.6-9.3,5.3-14.3,6.8c-6.7,2.1-14,1.1-19.8-2.9
			c-4.3-2.7-8-6.3-12.8-8.4c-8.1-3.5-17.3-3.4-26-2.8c-3.1,0.2-9.4,0.4-10.9,3.9c-1,2.4,1.5,9.3,3,13.5c2.2,6.1,4.2,12.7,2.8,19.1
			c5-6.6,12.8-10.4,21.1-10.3h6.3c7.6,0,21,2.9,26.8,22.4c6.7-12.1,19.5-22.4,39.7-22.4h10.2c8.4-0.1,16.8,1.9,24.2,5.9
			c4.5-3.8,10.2-5.9,16-5.9h46.5C538.7,245.3,539.1,241.5,539,241.4L539,241.4z M524.7,540.6c1.3-4.2,0.7-8.8-1.7-12.4
			c-1.6-2.3-1.5-5.4,0.2-7.6c-2-0.9-4.3-2.1-6.6-3.1c-2.3,1.3-5.5,3.2-8.9,4.9c-7.7,4-13.1,5.8-17.3,5.8c-1.6,0-3.2-0.3-4.7-1
			c-2.6-1.2-4.4-3.6-4.9-6.3c-1.5-2.8-3.8-5.1-6.4-6.9c-4.6-1.3-9.3-2.1-14.1-2.2l0,0c-3.2-0.2-6.5-0.1-9.6,0.3h-0.1
			c-1.3,0.1-2.7,0.3-4,0.6c-2.7,0.8-7.4,1.2-12.1,1.9h-0.2c-2.3,0.4-12.7,2.1-23.5,3.4c-19.1,2.2-24.4,1.3-27.4,0
			c-6.2-2.5-12.5-4.6-19-6.2c-13.2-3.2-16.5-1.2-16.5-1.2c-10.2,8.8-25.5,13.6-43.3,13.6c-1.4,0-2.9,0-4.3-0.1
			c-0.8,0-1.5-0.1-2.2-0.1H298c-10.2-0.6-31.1-6.4-48.2-11.4l-1.1-0.3c-4.4,4.4-10.6,6.5-16.8,5.7c-2.5-0.3-5-0.9-7.4-1.9
			c-0.5,0.5-1,1-1.6,1.4c-5.6,4.5-13.2,6-21.3,6c-10.1,0-20.9-2.4-28.6-4.1c-1.3-0.3-2.7-0.6-3.9-0.8c-4.1,3.2-9.4,4.3-14.4,2.8
			c-4.7-1.3-8.6-4.3-12.1-7c-2.2-1.7-6.5-4.9-7.7-4.5c-3.3,1.1-9.9,5.1-16.2,9c-15.2,9.3-27,16.2-36.3,16.2c-1.2,0-2.4-0.1-3.6-0.4
			c-9-2.1-14.7-8.4-18.9-13.1c-0.7-0.8-1.5-1.7-2.2-2.4c-1.2,0.8-2.8,1.9-3.9,2.7c-2.8,2-5.7,4-8.4,5.5c-1.2,2.5-2.5,4.9-4,7.3
			c4,0.1,7.1,2.7,9.4,4.7c2.3,2.2,5,3.9,7.9,5.2c4.4-0.7,8.9-1.1,13.3-1.1c2.2-0.1,4.1-0.1,5.9-0.3c17.3-1.5,34.3-4.2,51.2-8.3
			c19.6-4.5,30.4-7,57,3c3.2,1.2,7,4.3,7.3,12.2c0.1,3.8-0.5,8.2-1.2,12.9c-1.2,8.6-2.7,19.4,1.2,24c2.4,2.8,7.1,3,8.6,3
			c2.8,0.1,6.4-0.2,7.9-1.9c2.8-3.1,1.5-12.1,0.5-19.3c-1.6-11.3-3.4-24,6.4-30.1c10.8-6.8,26.9-3.5,49.2,1c6.3,1.3,12.9,2.6,20,3.9
			c9.4,1.6,19.4,0.2,30.1-1.3c5.9-0.8,12-1.7,18.1-2c14.9-0.7,30-0.4,44.6,0c4,0.1,8.2,0.2,12.2,0.3c10.2,0.2,20.4,0.7,30.2,1.2
			c16.1,0.8,32.7,1.7,49.3,1c3.4-0.2,7.2-0.6,11.2-1.1c9.8-1.2,20.9-2.5,30.6,0.4l0,0c3,0.9,5.8,2.2,8.4,3.9c0.5-0.4,1-0.6,1.6-0.8
			C522.6,544.2,523.9,543.1,524.7,540.6z M512.8,600c5.3-19,10.2-36.9,0.8-43.6c-1.6-1.1-3.5-1.9-5.4-2.5c-6.9-2.1-16.1-1-25,0.1
			c-4.3,0.5-8.4,1-12.3,1.2c-17.2,0.7-34.2-0.1-50.6-1c-9.7-0.5-19.8-1-29.8-1.2c-4.1-0.1-8.3-0.2-12.3-0.3
			c-14.4-0.3-29.2-0.7-43.7,0c-5.4,0.3-11,1.1-16.8,1.9c-11.2,1.6-22.8,3.2-34.3,1.3c-7.3-1.3-14.2-2.7-20.3-3.9
			c-17.7-3.6-33.1-6.7-39.3-2.8c-2.5,1.6-1.2,11-0.4,17.3c1.5,10.5,3.1,22.3-3.8,29.9c-4,4.4-10.2,6.5-18.3,6.2s-14.3-2.8-18.4-7.6
			c-7.7-9-5.8-23-4.2-34.2c0.5-3.7,1.3-9.1,1-11.5c-21.8-7.9-29.6-6.2-47.9-2c-17.4,4.2-35.1,7.1-53,8.6h-0.1
			c-2.2,0.2-4.5,0.3-6.7,0.3c-4.4,0.1-8.9,0.3-12.5,1.2c-0.9,0.3-1.8,0.6-2.6,1c-0.3,0.1-0.5,0.3-0.7,0.4l-0.1,0.1
			c-4.6,3.4-0.2,15.7,2.7,23.8c1.1,3.1,2.1,5.9,2.8,8.5c2.1,7.8,6.9,21.8,9.4,25c6.1,7.8,16.8,7.6,29.2,7.3c2.2-0.1,4.4-0.1,6.6-0.1
			c3.2,0,6.5,0.1,9.7,0.5c39.2,4.6,76.2,3.8,120.6,2.2c36.2-1.3,73-0.8,108.6-0.4c10.6,0.1,21.6,0.2,32.4,0.3
			c21.4,0.1,46.7,0.1,72-0.7c4.6-0.2,10.5,0.2,16.7,0.7c9.6,0.6,20.5,1.4,28.9,0.3c4-0.5,7.1-1.4,9.1-2.6s2.5-2.4,2.7-3.4
			C509,613.7,510.9,606.7,512.8,600L512.8,600z M510,458.3c-3.7-3.8-4.5-8.3-4.5-15.6c0-6.9-0.6-11.3-3.3-15.3
			c-1.6-2.4-3.8-4.5-6.4-5.8c2.5-1.1,4.6-2.8,6.3-4.9c3.4-4.3,4.9-10.1,4.9-15.8c0-10.1-4.7-18.2-12.1-22.5c-4.4-2.5-9-3.4-15.4-3.4
			h-30.6c-8.2,0-12,4-12.4,14.9c0,0.8,0,1.6,0,2.5V451c-0.2,2.1-0.4,4.1-0.4,6.2c0,4.9,0.6,11.2,3.6,13.7c5.1,4.3,7.6,7.1,4.7,17
			c-1.1,3.6-0.4,6,1.1,7.4c0.7,0.7,1.7,1.1,2.7,1.3c4.1,0.7,9.5-3,6.8-10.5c-3.1-8.9-3.7-8.7,0.7-11.6c4.3-2.9,8.1-4.7,8.1-23.5
			v-18.8h8c3-0.1,5.8,1.6,7.2,4.3c1.6,2.9,1.7,6.4,1.7,14.5c0,12,3.7,17.3,12.5,17.3h4.4C504.4,468.4,509,465.7,510,458.3L510,458.3
			z M483.2,359.6v-19c0-3.5-0.4-13.1-0.1-16c1.3-14.6-7.8-21.3-16.8-24.9c-6.5-2.4-13.2-4-20.1-4.7c-4.9-0.5-8.5-1.8-8.5-5.8
			c0-3.8,3.2-5.3,7.8-5.3c10.5,0,12.2,6.9,21.3,7.2c0.2,0,0.5,0,0.7,0c7.2,0,10.9-5.2,10.9-10.9c0-0.9-0.1-1.9-0.4-2.8
			c-1.8-8.9-12.2-15.6-26.1-15.6h-10.1c-20.9,0-30.6,15.8-30.6,30.8c0,14.1,7.7,21.8,16.5,25.4c6.2,2.5,12.8,4,19.5,4.5
			c5.8,0.5,8.8,2.2,8.8,5.7c0,3.8-3.4,5.1-8.8,5.1c-16.4,0-17.5-10.1-26.4-10.1c-6.3,0-9.9,4.5-9.9,10.3c0,1.4,0.2,2.9,0.6,4.3
			c2.6,9.8,14.1,17.5,29.9,17.5c0,0,9.9-1.3,12.1-1.3c2.3,0,6.3-1.5,6.3,3.9c0,8.2,5.9,12,12.1,12
			C478.1,369.9,483.2,364.8,483.2,359.6L483.2,359.6z M435.4,500.5c-1.1-1.6-2-3.3-2.7-5.1c-3.3,1.5-6.9,2.3-10.5,2.3
			c-8.3-0.1-17.3-5.1-20.7-14.3H383c-5.1,0.1-10.2-1.1-14.7-3.7c-4,2.5-8.5,3.7-13.2,3.7H353c-3.8,0-7.6-0.8-11-2.4
			c-4.5,1.6-9.2,2.4-13.9,2.4c-0.6,0.1-1.3,0.1-2,0.1c-1.5,0-3-0.1-4.6-0.2c0.2,1.3,0.3,2.7,0.5,4.1c1.5,14-6.8,20.6-10.4,22.7
			c11.2-1,20.5-4.4,26.9-9.9c5.3-4.6,14.3-5.2,28.3-2c7.5,1.8,14.7,4.2,21.8,7.1c0.7,0.2,4.9,0.8,21.3-1.2
			c10.1-1.2,19.6-2.8,21.6-3.1h0.1h0.2C433.3,500.8,434.4,500.7,435.4,500.5z M431.3,457.2v-0.7c0-7.1-4-12-10-12h-23.5V432h9.5
			c5.1,0,8.5-4.1,8.5-10.3c0-6.1-3.4-10.1-8.5-10.1h-9.5V399h23.5c5.2,0,9-3.8,9.8-9.5c0.1-0.9,0.2-1.7,0.2-2.6c0-7.2-4-12-10-12
			h-38.2c-8.8,0-12.5,4.7-12.5,17.3v58.7c0,12.8,3.7,17.3,12.5,17.3h21.8c7.2,0,10.5,0.7,10.5,6.8c0,10.7,15.2,9.3,15.6-0.4
			C431.2,466.9,431.3,459.6,431.3,457.2z M407.9,346.5c-0.1-2.6-0.5-5.1-1.2-7.6c-0.2-0.9-0.5-1.8-0.8-2.8l-18.3-62.2
			c-1.9-6.4-4.9-12.1-12.3-12.1H369c-7.5,0-10.7,6.1-12.4,11.7l-19,63.6c-1.4,4.7-2.7,8.6-3.6,11.8v0.1c-1.5,5.2-1.6,8.4,1.5,9.5
			c2.6,0.9,5,0.9,6.6,3.1s-8.3,10.4,0.7,14.3c-2.7-0.6-5.4-0.9-8.1-0.9h-2.9c-9.8,0-19.1,3.4-26.4,11.8c-0.5,0.5-1,1.1-1.4,1.7
			c-6.9,8.9-9.9,20-9.9,32.7v1c-0.1,10.1,0.6,20.2,2,30.2c0.3,2.7,0.4,5.4,0.4,8.2c0,0.5,0,1.1-0.1,1.6c0,0.8-0.1,1.6-0.1,2.6
			c-0.3,8.3-1.3,18.2-2.1,25.8c-1,8.9,12,11.8,14.9,4.9c0.7-1.8,0.8-3.7,0.4-5.5c-2.6-12.8-4.9-18.2-4.9-24.9c0-0.9,0.1-1.8,0.2-2.7
			c0,0,10.8,6.7,23.2,6c5.7,0,11.7-1.4,15.8-6.2c1.5,3.8,5.2,6.3,9.3,6.2h2.1c5.9,0,8.7-3.5,8.7-12.5v-20.7
			c0-10.9-4.7-14.3-12.6-14.3H341c-8.9,0-12,2.7-12,8.9c0,5.6,2.8,7.6,7.9,8c-0.6,5.7-3.4,7.8-7.1,7.8c-3.2,0-5.9-1.4-7.6-5.6
			c-1.5-3.9-2.2-10-2.2-16.9v-4c0-6.2,0.8-11.8,2.8-15.3c2.2-3.6,5.6-4.9,9.2-4.9c4.6,0,7.7,1.6,10.1,6.9c2.1,4.5,4.2,7.6,10.5,7.6
			c6,0,11.1-4.9,11.1-13.1c0-8.7-5.4-19-17-23.4c-0.1,0-0.1,0-0.1-0.1s0.1-0.1,0.2-0.2c5.9-3,1.9-8.8,0.9-12.6
			c-1-3.8,3.7-4.7,6.1-5.9c2.2-1.1,2.4-6.2,3.7-10.4l2.6-8.6h18.8l2.8,9.2c1.9,6.1,5.8,7.4,10.5,7.4l7.1-0.4
			C404.4,355.3,407.9,353.1,407.9,346.5L407.9,346.5z M332.3,273.8c0-0.3,0-0.5,0-0.8c-11.2,4.2-23.8,2.9-31.8-6.9
			c-1.1-1.3-2.1-2.8-2.9-4.4c-6.2,0.1-13.5,0.1-13.5,0.1c-8.8,0-12.5,4.7-12.5,17.4v58.7c0,3.9-1.8,14.9,6,16.1
			c7,1.1,14.6,1.9,15.8,4.2c0.5,0.9,0.7,2,0.7,3.1c0,4.8-4.1,10.2-3.1,14.9c0.9,4.2,4.1,6.3,7.3,6.3c4.1,0,8.1-3.7,6.1-11.2
			c-0.9-3.6-2.1-7.3-2.1-10.1c0-2.7,1-4.7,4.1-5.3c6.4-1.1,15.8-0.4,15.8-0.4c4.5,0,7.9-2.7,9.3-7.1c0.5-1.6,0.7-3.2,0.7-4.9
			c0-7.2-4-12.1-10-12.1h-23.5v-12.5h9.4c5.1,0,8.5-4.2,8.5-10.3s-3.4-10.1-8.5-10.1h-9.4v-12.6h23.5
			C328.3,285.8,332.3,280.9,332.3,273.8L332.3,273.8z M297.8,235.5c0.5-2.2,2.1-9.6-0.6-11.1l-0.3-0.2c-2.7-1.6-10.8-4.2-22.3-5.7
			c-12.2-1.6-24.4-1.7-34.3-0.2c-9.7,1.4-19.7,5.1-30.2,8.9c-12.5,4.6-25.4,9.3-38.6,10.3c-3.1,0.3-6.3,0.3-9.5,0.1
			c-13.6-0.8-21.2-6.2-27.3-10.4c-7.6-5.3-13.1-9.2-30.1-4.8c-2.5,0.7-13.5,2.8-23.4,4.3c-7.2,1.1-14.3,2.1-21.7,1.8
			c-5.4-0.2-11.6,0-16.6,2s-10.8,6.1-11.1,12l-0.2,4.2l0,0h12.2c7.4,0,13.6,2.1,18.1,6.2c3.9-3.4,9.7-6.2,18.6-6.2H95
			c6.5,0,12,1.6,16.4,4.7c4.4-3.1,10-4.7,16.3-4.7h30.6c9.3,0,16.4,1.6,23,5.4c1.8,1,3.4,2.1,4.9,3.4c4.9-5.7,12-8.8,20.8-8.8h30.5
			c9.3,0,16.3,1.6,23,5.3c1.3,0.8,2.6,1.6,3.8,2.5c4.8-5.1,11.7-7.8,19.9-7.8h11.1C295.7,243,297,239.4,297.8,235.5z M292.1,460.5
			c0-0.4,0-0.7-0.1-1.1c-0.5-6.3-4.2-9.4-4.2-16.6c0-6.9-0.5-11.3-3.2-15.3c-1.6-2.4-3.8-4.5-6.4-5.8c2.5-1.1,4.6-2.8,6.3-4.9
			c3.3-4.3,4.9-10.1,4.9-15.8c0-10.1-4.7-18.2-12.1-22.5c-4.3-2.5-9-3.4-15.4-3.4h-30.6c-8.8,0-12.5,4.7-12.5,17.3l0.2,58.1
			l-1.4,13.6c-1,6.1,1.8,12.9,6.2,12.9c3.9,0,5.2,1.3,5.5,6.6c0,0.7,0,1.6,0,2.5c0,7.5-2.4,9.1-1.9,14.5c0.3,0.9,0.6,1.7,1.2,2.4
			c3.1,3,10.9,2.6,10.3-4.8c-0.7-8.4-2.9-11.9-2.9-15c0-0.2,0-0.5,0.1-0.7c0.6-4.4,0.9-6.5,3.9-6.6c4.4-0.1,8-2.2,5.9-24.8v-18.7h8
			c3-0.1,5.8,1.6,7.1,4.3c1.6,2.9,1.8,6.4,1.8,14.5c0,12,3.7,17.3,12.4,17.3h4.5c6.6,0,12.3-0.3,12.3-7.9L292.1,460.5L292.1,460.5z
			 M279.9,483.4h-4.5c-6.7,0-12.5-1.8-17-5.3c-1.2,3.3-3.3,6.3-6,8.6c1,3.4,1.5,6.9,1.8,10.4c0.1,0.9,0.1,1.7,0.1,2.6
			c7.1,2.1,21.5,6.2,32.7,8.7c-7.1-5.4-9.9-14-7.6-23C279.5,484.8,279.7,484.2,279.9,483.4L279.9,483.4z M265.4,329.5
			c0-5.7-1.5-11.6-4.9-15.8c-1.8-2.2-4-4-6.6-5.1c2.4-1.2,4.5-2.9,6.1-4.9c3.4-4.3,4.9-10.1,4.9-15.8c0-10.1-4.7-18.2-12.1-22.5
			c-4.3-2.5-9-3.4-15.4-3.4H207c-8.8,0-12.5,4.7-12.5,17.4l0.2,8.3l1.2,50l-1.4,17.6c-1,7.2,1.4,13,7.2,14.2
			c0.8,0.2,1.5,0.2,2.3,0.2c7.6,0,10-0.1,11.8-6c1.5-5-3.6-10.2,2.2-10c3.8,0.1,26.2,3,35-1.4C260.9,348.1,265.4,339.6,265.4,329.5z
			 M214,506.8c0.3-0.2,0.5-0.4,0.7-0.7c-0.4-1-0.7-2-0.9-3c-0.1,0-0.3-0.1-0.4-0.1c-0.7-3.3-0.7-6.7-0.1-10l0.1-0.6
			c0.1-1,0.3-1.8,0.4-2.7c-4.3,6.9-12.3,11.2-21.8,11.2c-11.2-0.1-23.3-6.3-25.6-17.8c-10.9-0.9-20.5-5.3-27.5-12.6
			c-2,2.2-4.2,4.1-6.5,5.9c-6.3,5.2-14,6.2-20.2,6.3c-0.1,12.9-7.3,23-21.3,23.5c-0.5,0-1.2-0.1-1.7-0.1H89
			c-19.1,0-20.5-15.5-20.8-24c-8.6-2.3-19.3-9.6-19.3-31.4v-7.6c-6.7,3.3-13.6,9-20.8,17c-4.9,5.5-9.3,11.4-13.3,17.5
			c1.6,1.2,4,2.6,5.6,3.6c4.1,2.5,8.3,5.1,11.2,8.3c5.9,6.2,1.9,16.7-2.3,27.9c-0.2,0.5-0.4,1.1-0.6,1.7L29,519
			c2.5-1.1,5.2-2.2,7.6-3.2c2.1-0.9,5.9-3.5,9-5.7c5.2-3.6,7.8-5.3,10.4-5.8c6.2-1.1,10.3,3.6,14,7.7c3.2,3.7,6.9,7.8,11.6,8.8
			c0.4,0.1,3.1,0.4,11-3.4c5.8-2.8,12.3-6.8,18.5-10.6c7.6-4.7,14.3-8.8,19.2-10.3c8.3-2.7,15.1,2.5,20.5,6.7
			c8,6.1,8.6,5.5,10.9,3.1c1.3-1.4,3.1-2.2,5-2.2s4.3,0.5,9.1,1.5C185,508,206.7,512.8,214,506.8L214,506.8z M211,435.4v-43.1
			c0-4.5-0.2-8.6-1.4-11.4c-1.6-3.9-4.8-5.9-8.3-5.9h-1.8c-3.5,0-6.7,2.1-8.3,5.9c-1.2,2.9-1.4,6.9-1.4,11.4V427
			c0,4.5-0.2,8.5-1.4,11.4c-1.6,3.9-4.9,6-8.4,6h-1.7c-3.5,0-6.7-2.1-8.4-6c-1.2-2.9-1.4-6.9-1.4-11.4v-34.7
			c0-12.8-3.7-17.3-12.5-17.3h-2.3c-8.8,0-12.5,4.7-12.5,17.3v42.9c0,1.3,0.1,2.6,0.2,3.9c1.4,18.9,12.8,29.3,29.3,29.3
			c7.6,0.4,12,1.6,11.8,10c-0.3,10.9,18.8,11.5,19.5-0.3s-0.7-11.1,2.5-15.3S211,455.6,211,435.4z M180.9,303.5
			c3.3-4.3,4.9-10.1,4.9-15.8c0-10.1-4.7-18.2-12.1-22.5c-4.3-2.5-9-3.4-15.4-3.4h-30.6c-8.8,0-12.5,4.7-12.5,17.4l0.2,54.1
			c0,1.5-0.4,5.6-0.6,7.1c-1.6,12.5,4.2,15.6,12.5,15.6l3.6-0.2c8.4,0,13.6-1.5,11.9-16c-0.1-1.2-1-4.9-1-6.1l0.6-14.6h8
			c3-0.1,5.8,1.6,7.1,4.3c1.6,2.9,1.8,6.4,1.8,14.5s-1.2,10.1-1.2,17.9c0,4.4,1.4,8.1,3.8,10.5c1.9,2,4.5,3.1,7.2,3.1
			c6.6,0,15.8,0.5,15.8-12.1s-0.7-27.7-0.7-27.7c0-6.9-0.5-11.3-3.2-15.3c-1.6-2.4-3.8-4.4-6.4-5.8
			C177.1,307.3,179.2,305.6,180.9,303.5z M135.1,442.6c0-1-0.1-2-0.2-3c-0.3-4.7-1.9-9.2-4.8-12.9c-1.8-2.2-4-4-6.6-5.2
			c2.4-1.2,4.5-2.9,6.1-4.9c3.4-4.3,4.9-10.1,4.9-15.8c0-10.1-4.7-18.2-12.1-22.5c-4.3-2.5-9-3.4-15.4-3.4H76.7
			c-8.8,0-12.5,4.7-12.5,17.3v58.7c0,11.9,3.2,16.7,10.7,17.3c1.8,0.3,3.6,0.8,5.3,1.6c3,1.2,4.8,4.9,2.9,11
			c-2.6,8.5,2.2,13.2,6.7,13.2c4.2,0,8.3-3.9,6.1-12.3c-3.3-13.2-0.4-11.6,4.5-13.4s16.1,1.5,22.3-3.5
			C129.5,459.6,135.1,452.7,135.1,442.6z M107.4,337.9v-58.6c0-12.7-3.7-17.4-12.5-17.4H80.5c-6.3,0-9.9,1.8-11.5,8.4l-6.4,26.5
			L55,270.4c-2.1-7-5.4-8.6-11.2-8.6H28.5c-8.9,0-12.6,4.7-12.6,17.4v58.7c0,4.6,0.2,8.6,1.4,11.4c1.6,3.9,4.4,5.9,4.1,12.5
			c-0.3,7.2-2.3,15.5-2.8,23.8c0,0.4,0,0.8,0,1.3c0.2,3.9,2.4,9.2,6.6,9.1c4.9-0.2,8.4-4.5,7.6-9.6c-0.1-0.5-0.2-1-0.2-1.5
			c-1.3-7.2-4.1-17.7-4.1-23c0-0.4,0-0.9,0.1-1.3c0.7-5,7.4-5.2,8.3-10.2c0.6-3.7,0.8-7.5,0.8-11.2l-0.6-37l11.1,47.2
			c1.6,6.1,6.4,8.1,10.9,8.1h1.7c4.2,0,7-2.1,8.6-8.2L80.1,302v36c0,12.8,3.7,20.9,12.5,20.9l2.8,0.1
			C104.2,358.9,107.4,350.6,107.4,337.9z"/>
		<path d="M550.2,438.6v13.6h-1.8v-11.5l-4,11.5h-1.8l-4-11.5v0.4c0,0.3,0,0.8,0,1.5v9.5h-1.8v-13.6h2.7l4,11.5l4-11.5L550.2,438.6
			L550.2,438.6z"/>
		<polygon points="535,438.6 535,440.2 530.3,440.2 530.3,452.2 528.4,452.2 528.4,440.2 523.7,440.2 523.7,438.6 		"/>
		<path d="M495.3,570.6c5.8,8.8,5.3,24.9-4.7,34.8c-2.6,2.6-6.8,2.6-9.4,0c-2.6-2.5-2.6-6.6-0.1-9.2l0.1-0.1c3.2-3.2,6-10.9,4-16.5
			c-2.4-0.3-7.6-0.6-18.9-0.7c-11.1-0.1-25.1,0-38.6,0.2c-21.9,0.2-42.5,0.4-52.2-0.3c-3.6-0.3-6.3-3.4-6-7s3.4-6.3,7-6
			c9.2,0.7,30.5,0.5,51.1,0.3c14.9-0.1,30.3-0.3,42-0.1c6.4,0.1,11.2,0.3,14.7,0.5C489.3,566.8,493.2,567.3,495.3,570.6z"/>
		<path d="M494,127.1c0.1,3.9-3,7.2-6.9,7.3c-0.1,0-0.2,0-0.4,0c-4,0.1-7.3-3-7.4-6.9c0-0.1,0-0.2,0-0.3c0.1-4,3.5-7.3,7.6-7.1
			C490.7,120.1,493.9,123.2,494,127.1L494,127.1z"/>
		<path d="M477.1,400.2c2,1.5,3.2,3.9,3.1,6.4c0.1,2.5-1,4.9-3.1,6.3c-1.7,1-3.7,1.4-5.7,1.3h-7.8V399h7.8
			C473.4,398.8,475.4,399.3,477.1,400.2z"/>
		<path d="M460.2,90.5c4,0,7.4,3.2,7.4,7.3c0,4-3.3,7.3-7.4,7.3c0,0,0,0-0.1,0c-4,0-7.3-3.1-7.4-7.1C452.7,93.8,456,90.5,460.2,90.5
			z"/>
		<path d="M452.4,142.1c4.1-0.1,7.5,3.2,7.5,7.3c0,4-3.3,7.3-7.4,7.3c0,0,0,0-0.1,0c-4,0-7.3-3.1-7.4-7.1
			C445.1,145.5,448.4,142.2,452.4,142.1z"/>
		<path d="M432.5,112.2c4,0,7.4,3.2,7.4,7.3c0,4-3.2,7.4-7.3,7.4l0,0c-3.6-0.1-7.5-2.9-7.3-7.4C425,115.5,428.8,112.2,432.5,112.2z"
			/>
		<path d="M431.5,75.1c0.1,3.9-3,7.2-6.8,7.3c-0.2,0-0.4,0-0.5,0c-4.1,0.3-7.5-3.3-7.4-7.2c0.3-4.1,3.9-7.2,8-6.8
			C428.3,68.7,431.2,71.5,431.5,75.1L431.5,75.1z"/>
		<path d="M393.2,66.9c0,4-3.2,7.3-7.2,7.3c-0.1,0-0.1,0-0.2,0c-4-0.1-7.2-3.4-7.1-7.4s3.4-7.2,7.4-7.1
			C390.1,59.7,393.2,62.9,393.2,66.9z"/>
		<polygon points="370.6,301.2 376.1,322.5 365.1,322.5 		"/>
		<path d="M334.9,250.4v0.1c0-0.3-0.1-0.5-0.1-0.8c0,0.2,0.1,0.3,0.1,0.4V250.4z"/>
		<path d="M335,253c0,0.1,0,0.2,0,0.3c0,0.4-0.1,0.8-0.2,1.2c-0.2,0.8-0.6,1.6-1.2,2.3l0,0c-0.4,0.5-0.9,1-1.4,1.4l0,0
			c-0.1,0.1-0.2,0.2-0.3,0.2h-0.1c1-0.8,1.9-1.8,2.4-3c0.7-1.6,0.9-3.3,0.7-5C335.1,251.3,335.1,252.2,335,253z"/>
		<path d="M329.3,220.6c-2.2,6.8,0.6,14.8,3.2,21.8c0.2,0.4,0.3,0.8,0.4,1.2C330.2,236.6,326.8,228.1,329.3,220.6z"/>
		<path d="M316,261.6c1.4,0.5,2.8,0.7,4.3,0.6l-0.4,0.1h-0.1c-0.6,0.1-1.1,0.1-1.7,0c-1.6-0.3-3.1-0.9-4.4-1.9h-0.1
			C314.4,260.9,315.2,261.3,316,261.6z"/>
		<path d="M311,237.3c0-0.1,0-0.2,0-0.2c0.8-3.8,1-7.6,0.6-11.4c0.8,5.9-0.4,12.1-2.1,17.8l0.2-0.8
			C310.1,240.9,310.6,239.2,311,237.3z"/>
		<path d="M308,250.8c-0.1-0.8,0-1.6,0.2-2.3c0.1-0.2,0.1-0.4,0.1-0.5l0.1-0.2c-0.3,1.2-0.4,2.3-0.3,3.5c0.1,1.3,0.4,2.5,1,3.6
			c-0.1-0.3-0.3-0.6-0.4-0.9c-0.4-0.9-0.5-1.9-0.6-2.9L308,250.8z"/>
		<path d="M259.5,400.2c2,1.5,3.2,3.9,3.1,6.4c0.1,2.5-1,4.9-3.1,6.3c-1.8,1-3.8,1.4-5.8,1.3h-7.8V399h7.8
			C255.8,398.8,257.7,399.3,259.5,400.2z"/>
		<path d="M236.3,317.3c2,1.3,3,3.6,3,6.4s-1.1,5.1-3,6.3c-1.8,1-3.8,1.4-5.8,1.3h-8.8V316h8.8C232.5,315.9,234.5,316.3,236.3,317.3
			z"/>
		<path d="M235.1,287.1c3.5,2.9,4,8.1,1.1,11.6c-0.4,0.4-0.7,0.8-1.1,1.1c-1.8,0.9-3.8,1.4-5.8,1.3h-7.6v-15.3h7.6
			C231.3,285.7,233.3,286.2,235.1,287.1z"/>
		<path d="M156,287.1c3.5,2.8,4.1,8,1.2,11.5c-0.4,0.4-0.8,0.9-1.2,1.2c-1.8,0.9-3.8,1.4-5.8,1.3h-7.8v-15.3h7.8
			C152.2,285.7,154.2,286.2,156,287.1z"/>
		<path d="M147,67.1c1.2,3.4-0.6,7.1-4,8.3h-0.1c-28.2,9.7-50.2,25.5-59.1,42.1c-1.7,3.2-5.7,4.4-9,2.8c-3.2-1.6-4.5-5.5-2.9-8.7
			c0,0,0-0.1,0.1-0.1c5.1-9.6,13.8-19.1,25.2-27.4c11.6-8.5,25.5-15.6,41.3-21C142,61.9,145.7,63.7,147,67.1z"/>
		<path d="M132,599.8c0.4,3.6-2.2,6.9-5.8,7.3l-0.5,0.1c-8.9,1-14.4,1.6-19.2,1.6c-5.4,0-9.9-0.8-16.9-2.8
			c-5.1-1.4-9.3-5.7-12.1-12.4c-2-4.9-3.1-10.1-3.2-15.4c0-3.7,3-6.7,6.7-6.7s6.7,3,6.7,6.7c0.1,3.6,0.8,7.1,2.2,10.4
			c1.5,3.6,3,4.7,3.5,4.8c10.8,3.1,12.7,2.9,30.9,0.7l0.5-0.1C128.3,593.6,131.6,596.1,132,599.8L132,599.8z"/>
		<path d="M105.9,430.4c2,1.3,3,3.6,3,6.3s-1.1,5.1-3,6.4c-1.8,1-3.8,1.4-5.8,1.3h-8.8v-15.3h8.8C102.2,429,104.2,429.4,105.9,430.4
			z"/>
		<path d="M104.8,400.2c2,1.3,3,3.6,3,6.4s-1.1,5.1-3,6.3c-1.8,1-3.8,1.4-5.8,1.3h-7.6V399H99C101,398.8,103,399.3,104.8,400.2z"/>
	</g>
</g>
</svg>
