<svg xmlns="http://www.w3.org/2000/svg" width="480.94" height="226.47" viewBox="0 0 480.94 226.47"><defs><style>.cls-1{fill:#e43d4c;}.cls-2{fill:#ffe28c;}</style></defs><g id="Layer_2" data-name="Layer 2"><g id="Layer_1-2" data-name="Layer 1"><polygon class="cls-1" points="453.19 151.29 453.19 152.89 448.8 152.89 448.8 164.28 447 164.28 447 152.89 442.6 152.89 442.6 151.29 453.19 151.29"/><path class="cls-1" d="M455.19,151.29h2.6l3.8,11,3.79-11h2.4v13h-1.6v-11l-3.79,11h-1.8l-3.8-11v11h-1.6Z"/><path class="cls-1" d="M49.21,99.75c-6.4,4.4-8,13-8,20.39v52.37c0,10,3,22,16.19,23.38a3.4,3.4,0,0,1,.2,1.4,18.14,18.14,0,0,0,4.2,11.39,14.34,14.34,0,0,0,11,5.4h0c5.6,0,12.2-3.8,13-14.59a28.27,28.27,0,0,0,.19-3.8h3.2c4.8,0,10.8-.4,15.59-4.39a44.89,44.89,0,0,0,8.4-9,30.64,30.64,0,0,0,25.38,13.59,6.92,6.92,0,0,1,2.4,1.4v.2c.4,7.8,8,13.59,17.59,13.59,9,0,15.79-5.59,16.79-13.79a11.06,11.06,0,0,0,6.6,5.4h0c0,2-.2,4-.4,6a26.82,26.82,0,0,0,0,8c1.2,6.2,7.79,9.79,13.59,9.79a11.94,11.94,0,0,0,8.79-3.79,12.86,12.86,0,0,0,3.2-10.2,63.44,63.44,0,0,0-2-10.39,8.66,8.66,0,0,0-.2-1c5.4-2.4,7.4-8.6,8-16.19,3.8,9.19,11.59,11,17,11h3.79a24.83,24.83,0,0,0,5.4-.6,37.31,37.31,0,0,1-1.4,8,14.6,14.6,0,0,0,2.4,12.79,14.39,14.39,0,0,0,11.39,5.6,13.63,13.63,0,0,0,10-4.4,15.52,15.52,0,0,0,3.6-12.59c-.4-3.6-.8-6.6-1-9v-.6a35.92,35.92,0,0,0,9.19,1h1.8a28.43,28.43,0,0,0,12.19-2.6,16.24,16.24,0,0,0,9,2.6h1.8a14.07,14.07,0,0,0,11-4.39,18.36,18.36,0,0,0,12.59,4.39H341a14.29,14.29,0,0,0,14.39,12.4h0a15.26,15.26,0,0,0,12-5.6,14.71,14.71,0,0,0,3.8,11.39,10.88,10.88,0,0,0,8,3.4,11.88,11.88,0,0,0,8.19-3.6,15.58,15.58,0,0,0,4-11.59,35.7,35.7,0,0,0-.4-4.6c3.6-3,6-6.79,7.19-14,3.6,10.19,12,12,17.39,12h3.8c10.59,0,17.59-5.79,19-16l.6-4-2.8-3c-.8-.8-1.6-2-1.6-7.6s-.4-12.19-4.2-18a23.83,23.83,0,0,0,4.2-8.79,13.42,13.42,0,0,0,5.6,1.2h0a13.18,13.18,0,0,0,9.79-4.4,14.4,14.4,0,0,0,3.4-11.59l-.4-3c-.8-8-2-18.79-2.2-22.19h0c7.6-4,8.6-14.19,8.6-24.18V37.79H464c9.8,0,17-8,17-18.79S473.75,0,464,0H414.78a16.2,16.2,0,0,0-13,6.4A35.44,35.44,0,0,0,380.4,0h-8.59c-20.59,0-32.18,14.39-34.18,30.18l-4-13.59C329.64,2.81,321.44,0,315,0h-5.39c-5.2,0-14.59,2.2-18.59,16.19l-13.39,46a17.1,17.1,0,0,0-7.6-1.79,17.3,17.3,0,0,0,3.4-11.2A18.68,18.68,0,0,0,269.87,38c9.8,0,16.79-8,16.79-19S279.47.21,269.67.21H237.09c-8.59,0-13.59,3.8-16.19,9a26.4,26.4,0,0,0-6.39-5,35.3,35.3,0,0,0-17.39-4H171.53c-9.19,0-14.19,4.4-16.79,10.4a27.14,27.14,0,0,0-7.39-6.2A33.44,33.44,0,0,0,130,.21H103.77c-6.59,0-11,2.2-14,5.6-3-3.4-7.39-5.6-14-5.6H63.6C56.2.21,50.81,3,47.81,8.41c-3.2-5.6-8.2-8.2-15.39-8.2H19.23C3.44.21,0,13,0,23.8V74.57a37,37,0,0,0,1.8,13.19,35.27,35.27,0,0,0,2.59,4.6c1.2,1.6,1.2,1.6,1,2.39a53.91,53.91,0,0,1-.8,5.6,50.64,50.64,0,0,0-1,11A12.71,12.71,0,0,0,16,122.74a11.74,11.74,0,0,0,11.59-11.6,80.84,80.84,0,0,0-.2-9.79c-.2-2-.2-4-.2-6a21.12,21.12,0,0,1,2-2.39l2-2c3,4.79,7.79,8.59,13.79,8.59h1.4a11.71,11.71,0,0,1,2.6.4"/><path class="cls-2" d="M106,151.32a14.87,14.87,0,0,0-5.59-4.4,15.24,15.24,0,0,0,5.19-4.19,22.53,22.53,0,0,0,4.2-13.8,21.13,21.13,0,0,0-10.39-19.38,25.16,25.16,0,0,0-13.2-3h-26c-7.59,0-10.59,4-10.59,15v51c0,11,3.2,15,10.59,15a9.56,9.56,0,0,1,5.8,9.59c0,7.6,10.39,13.19,11.39,1.6,1-11.79-1.8-9.59,2.4-11.19h0c4.2-1.6,14.39,1.4,19.79-3,5.79-4.8,10.59-10.79,10.59-19.39A22.9,22.9,0,0,0,106,151.32Zm-33.18-24h6.4a7.49,7.49,0,0,1,5,1.2c.4.2.6.6,1,1a7.05,7.05,0,0,1-1,10,10.84,10.84,0,0,1-5,1.2h-6.4Zm12.4,38.18a10.84,10.84,0,0,1-5,1.2h-7.6V153.52h7.6a10.84,10.84,0,0,1,5,1.2,6.75,6.75,0,0,1,2.59,5.39A6,6,0,0,1,85.19,165.51Z"/><path class="cls-2" d="M174.93,158.92V121.54a28.05,28.05,0,0,0-1.2-10,7.78,7.78,0,0,0-7.19-5h-1.4a8,8,0,0,0-7.2,5.19,28.05,28.05,0,0,0-1.2,10v30a28,28,0,0,1-1.2,10,7.76,7.76,0,0,1-7.19,5.2H147a8,8,0,0,1-7.2-5.2,28,28,0,0,1-1.2-10v-30c0-11-3.2-15-10.59-15h-2c-7.59,0-10.59,4-10.59,15v37c0,18.38,10,28.78,25,28.78,3,1.2,8.8,3.2,9,9.59s17,9,17.59-1.2-.6-9.59,2.19-13.39,5.6-6.2,5.8-23.58Z"/><path class="cls-2" d="M240.29,165.31c0-6-.4-9.79-2.8-13.39a14.42,14.42,0,0,0-5.39-5,14.22,14.22,0,0,0,5.39-4.19,23.91,23.91,0,0,0,4.2-13.8,21.13,21.13,0,0,0-10.39-19.38,25.16,25.16,0,0,0-13.2-3h-26c-7.6,0-10.59,4-10.59,15v64c0,4.8.4,9.19,4.19,9.19s4.8,1.6,4.8,8-1.4,9.19-.8,12.19,9.6,6,9-1.8-3.8-12.39-2.4-16,0-3,3.2-3.2h0c3.19-.4,5-2.19,5-21.58V155.92h6.8a7,7,0,0,1,6.19,3.59c1.4,2.4,1.4,5.6,1.4,12.6,0,10.39,3.2,15,10.6,15h3.79c6,0,9.8-2.4,10.8-8.8C241.09,175.51,240.29,171.51,240.29,165.31ZM218.7,134.13a6.32,6.32,0,0,1-2.59,5.6,10.84,10.84,0,0,1-5,1.2h-6.6v-13.4h6.6a10.84,10.84,0,0,1,5,1.2,5.6,5.6,0,0,1,2.59,5.4Z"/><path class="cls-2" d="M362.82,177.3c0-6.19-3.4-10.39-8.6-10.39h-20V156.12h8c4.4,0,7.19-3.6,7.19-8.8s-2.79-8.79-7.19-8.79h-8v-11h20c5,0,8.6-4.19,8.6-10.39s-3.4-10.39-8.6-10.39H321.64c-7.59,0-10.59,4-10.59,15v51c0,11,3.2,15,10.59,15h18.59c6.2,0,9,.6,9,6,0,9.4,13,8,13.4-.4s.2-16,.2-16Z"/><path class="cls-2" d="M451,74.57V29.39h13c5,0,8.6-4.19,8.6-10.39S469.15,8.61,464,8.61H414.78c-5,0-8.59,4.19-8.59,10.39s3.4,10.39,8.59,10.39h13v45c0,5.19.6,17.59,4.59,17.59s5.4,6.19,5.4,7.19c-.4,8.6-1.2,17.19-2.4,25.59-1.6,8.19,10.59,9.19,9.6,0s-2.4-21.59-2.6-25.59-1-6.39,1.2-7.19,7.19,2,7.39-17.39"/><path class="cls-2" d="M426,164.51c0-6-.4-9.79-2.8-13.39a14.37,14.37,0,0,0-5.4-5,14.18,14.18,0,0,0,5.4-4.19,23.91,23.91,0,0,0,4.2-13.8A21.12,21.12,0,0,0,417,108.75c-4-2.19-8.48-2.37-13.05-2.18l-.14,0h-26c-7.4,0-10.6,4-10.6,15v51s-1.6,13.59,2.8,17.19c4.4,3.79,6.2,4.19,5.8,13-.2,8.79,7.39,8.19,7.19,0-.4-8.2-3.19-7.6.6-10v-.2c3.8-2.39,6.8-4,6.8-20.38V155.72h6.79a6.53,6.53,0,0,1,6,3.6c1.4,2.39,1.4,5.59,1.4,12.59,0,10.39,3.2,15,10.59,15H419c6,0,9.8-2.4,10.79-8.8C426.58,174.91,426,170.91,426,164.51Zm-24-24.78a10.84,10.84,0,0,1-5,1.2H390.4v-13.4H397a10.84,10.84,0,0,1,5,1.2,6.2,6.2,0,0,1,2.6,5.4A6.82,6.82,0,0,1,402,139.73Z"/><path class="cls-2" d="M381.6,88.56c2,0,5.4-1.4,5.4,3.4a9.83,9.83,0,0,0,9.2,10.39h1.19a9.48,9.48,0,0,0,9.6-9V77c0-3-.4-11.4,0-13.8,1-12.59-6.6-18.38-14.39-21.58a71.78,71.78,0,0,0-17.19-4c-4.2-.4-7.4-1.6-7.4-5s2.8-4.59,6.6-4.59c9.19,0,10.59,6.19,18.79,6.19a8.88,8.88,0,0,0,9.19-8.39v-1C402.59,16,393.2,9,380,9h-8.2c-17.79,0-26,13.79-26,26.58,0,12.19,6.59,19,14,22a54,54,0,0,0,16.59,4c5,.4,7.59,2,7.59,5s-3,4.4-7.59,4.4c-14,0-15-8.8-22.59-8.8a8.27,8.27,0,0,0-8.59,8v1c0,10.19,10.59,18.79,26,18.79.2-.4,8.6-1.4,10.39-1.4"/><path class="cls-2" d="M341,73.17l-15.59-54c-1.6-5.6-4.2-10.39-10.6-10.39h-5.39c-6.4,0-9.2,5.39-10.6,10.19L282.66,74.17c-.6,2.6-1.19,5.39-1.59,8.19v.2c-1.6,8-2.4,11.2,0,11.2s4.79-.8,6.19,1.19-.6,3-1.2,9.4a5,5,0,0,0,.4,2.75,31.44,31.44,0,0,0-6-.55h-2.4a28.71,28.71,0,0,0-23.79,11.79c-6,7.8-8.39,17.39-8.39,28.38v.8a227.33,227.33,0,0,0,1.6,26.19,112.85,112.85,0,0,1-1.6,31.78c-2.4,9,12.19,11.79,11,0s-2.4-16-1.8-23.19a37,37,0,0,0,19.59,5.4,17,17,0,0,0,13.59-5.4,8.24,8.24,0,0,0,8,5.4h1.8c5,0,7.39-3,7.39-10.8v-18c0-9.4-4-12.4-10.79-12.4h-8.8c-7.59,0-10.19,2.4-10.19,7.6,0,4.8,2.4,6.59,6.79,7-.59,5-3,6.8-6.19,6.8a6.48,6.48,0,0,1-6.4-4.8,44.94,44.94,0,0,1-1.8-14.59v-3.6c0-5.39.6-10.19,2.4-13.39a8.33,8.33,0,0,1,7.8-4.2c4,0,6.59,1.4,8.59,6,1.8,4,3.6,6.6,9,6.6s9.39-4.2,9.39-11.4a21.93,21.93,0,0,0-14.16-20.08,2.16,2.16,0,0,0,1.37-2.3c-.6-3.2-.6-6-1.2-8.4s3.2-5.79,5.4-6.19c2.39-.4,2.59-3.8,2.79-7.2l2.4-8.39h16l2.4,8c1.6,5.2,4.4,6,8.4,6h6.59c4.2,0,7.2-2,7.2-7.6A23.33,23.33,0,0,0,341,73.17Zm-34.58-12,3.8-12.6,3.6,12.6Z"/><path class="cls-2" d="M269.87,89.56c5,0,8.6-4.2,8.6-10.4s-3.4-10.39-8.6-10.39h-20V58h8c4.4,0,7.2-3.6,7.2-8.8s-2.8-8.79-7.2-8.79h-8v-11h20c5,0,8.6-4.19,8.6-10.39s-3.4-10.39-8.6-10.39H237.29c-7.59,0-10.59,4-10.59,15V74.37c0,3.39-.8,14,5.2,14s10,1.6,10.39,4,0,7.19,2.2,8.39,9.59,4.6,10.79,0-2.4-10.39,3-11.19a56.08,56.08,0,0,1,11.59,0"/><path class="cls-2" d="M217.3,53.38a14.72,14.72,0,0,0-5.59-4.4,15,15,0,0,0,5.19-4.19A22.53,22.53,0,0,0,221.1,31a21.13,21.13,0,0,0-10.39-19.38,25.15,25.15,0,0,0-13.19-3h-26c-7.59,0-10.59,4-10.59,15V92.76c0,4.59,1.6,10.79,8.19,10.79s10.4-2.6,10.4-7-.6-7,2.6-7h0c3.19,0,21.18.8,28.78-3C217.5,83.16,221.5,76,221.5,67.17A22.5,22.5,0,0,0,217.3,53.38Zm-26.78-24a7,7,0,0,1,4.8,1.2c.4.2.6.6,1,1a7,7,0,0,1-1,10,10.65,10.65,0,0,1-4.8,1.2h-6.2l-.39-13.4Zm6,38.18a10.84,10.84,0,0,1-5,1.2h-7.59V55.58h7.59a9.24,9.24,0,0,1,5,1.2c.4.2.6.6,1,1A6.64,6.64,0,0,1,196.52,67.57Z"/><path class="cls-2" d="M143.75,49a14.18,14.18,0,0,0,5.4-4.19A22.59,22.59,0,0,0,153.34,31,21.11,21.11,0,0,0,143,11.61a25.12,25.12,0,0,0-13.19-3h-26c-7.59,0-10.59,4-10.59,15V74.37c0,11,3.2,15,10.59,15h2c7.6,0,10.6-4,10.6-15V58h6.79a6.38,6.38,0,0,1,6,3.79c1.4,2.4,1.4,5.6,1.4,12.6s-.2,8.39-.2,15,3,12.19,8.59,12.19,12.79-.2,12.79-11.19h0V67c0-6-.4-9.79-2.79-13.19A12.16,12.16,0,0,0,143.75,49ZM128,41.59a10.84,10.84,0,0,1-5,1.2h-6.59V29.59H123a7.49,7.49,0,0,1,5,1.2c.4.2.6.6.8.8C131.56,34.39,131,39,128,41.59Z"/><path class="cls-2" d="M19,93.76c-.6,4.39.8,11,.4,16.59s-6.8,4.19-7.2,0,1.2-9.2,1.8-14.8-3-7.59-4.2-11a28,28,0,0,1-1.2-10v-51c0-11,3.2-15,10.8-15H32.62c5,0,7.79,1.4,9.59,7.39l6.4,22.79L54,15.8c1.4-5.79,4.4-7.39,9.8-7.39H76c7.6,0,10.59,4,10.59,15V74.17c0,11-3.19,15-10.59,15H74c-7.59,0-10.59-4-10.59-15V43.39L54,83c-1.59,5.2-4,6.6-7.59,6.6H45c-3.8,0-6.8-1.6-8.2-7L26.62,43.39v31a41.46,41.46,0,0,1-1.2,10c-.6,1.8-5.79,5-6.39,9.4"/></g></g></svg>